<?xml version="1.0" encoding="UTF-8"?>
<svg version="1.1" xmlns="http://www.w3.org/2000/svg" width="378" height="244">
<path d="M0 0 C124.74 0 249.48 0 378 0 C378 80.52 378 161.04 378 244 C253.26 244 128.52 244 0 244 C0 163.48 0 82.96 0 0 Z " fill="#FEFEFE" transform="translate(0,0)"/>
<path d="M0 0 C0.66 0 1.32 0 2 0 C0.67616394 4.31766171 -0.99923614 8.13124146 -3.15234375 12.09765625 C-3.76400391 13.22880859 -4.37566406 14.35996094 -5.00585938 15.52539062 C-5.64973068 16.70443194 -6.29361097 17.88346836 -6.9375 19.0625 C-7.57788906 20.24521804 -8.21786659 21.42815901 -8.85742188 22.61132812 C-11.48911776 27.46239321 -14.13019102 32.28481131 -17 37 C-16.02804688 36.69707031 -15.05609375 36.39414062 -14.0546875 36.08203125 C-4.70614471 33.22380469 4.68047386 30.85019136 14.22680664 28.74658203 C19.83873841 27.50720394 25.37878721 26.15925719 30.87890625 24.48046875 C33.32320167 23.92678857 35.50167027 23.85052728 38 24 C40.09101881 26.09101881 39.66291918 30.36536507 39.9375 33.25 C40.02249756 34.11230225 40.10749512 34.97460449 40.19506836 35.86303711 C41.09644403 45.37259182 41.71191941 54.90328052 42.30249023 64.43652344 C42.41765991 66.23331543 42.41765991 66.23331543 42.53515625 68.06640625 C42.63389038 69.6743103 42.63389038 69.6743103 42.73461914 71.31469727 C42.90961664 74.09783918 42.90961664 74.09783918 44 77 C44.83772949 76.15179688 45.67545898 75.30359375 46.53857422 74.4296875 C49.63834636 71.29380403 52.74466026 68.16447162 55.85302734 65.03710938 C57.19923329 63.68082557 58.54364149 62.32275497 59.88623047 60.96289062 C61.81271716 59.01223399 63.74550883 57.06802606 65.6796875 55.125 C66.28183075 54.51253418 66.883974 53.90006836 67.50436401 53.26904297 C68.96543501 51.80757815 70.47828173 50.39820649 72 49 C72.66 49 73.32 49 74 49 C73.47061298 53.08997008 71.38967241 54.97052429 68.51953125 57.80859375 C67.60236328 58.72060547 66.68519531 59.63261719 65.74023438 60.57226562 C65.25901123 61.04317627 64.77778809 61.51408691 64.28198242 61.99926758 C62.82806062 63.42227029 61.38485667 64.85543925 59.94335938 66.29101562 C52.29934361 73.84968299 52.29934361 73.84968299 48.32421875 77.03515625 C47.55722656 77.68355469 46.79023438 78.33195312 46 79 C46 79.66 46 80.32 46 81 C46.73524902 81.42297363 47.47049805 81.84594727 48.22802734 82.28173828 C51.00546656 83.88012946 53.78242565 85.47935093 56.55908203 87.07910156 C57.75160427 87.7659482 58.94430697 88.45248165 60.13720703 89.13867188 C64.0968622 91.41655593 68.04907358 93.70701995 72 96 C73.01739258 96.58104492 74.03478516 97.16208984 75.08300781 97.76074219 C75.99663086 98.29086914 76.91025391 98.82099609 77.8515625 99.3671875 C78.65674316 99.8297998 79.46192383 100.29241211 80.29150391 100.76904297 C80.85530762 101.17525879 81.41911133 101.58147461 82 102 C82 102.66 82 103.32 82 104 C78.9080818 103.35492354 76.45319996 102.2996185 73.69140625 100.77734375 C72.86785645 100.32456055 72.04430664 99.87177734 71.19580078 99.40527344 C70.32681152 98.9209082 69.45782227 98.43654297 68.5625 97.9375 C67.22421143 97.20128418 67.22421143 97.20128418 65.85888672 96.45019531 C61.83743864 94.22000744 57.86173652 91.96137695 54.00390625 89.45703125 C53.42374756 89.0813501 52.84358887 88.70566895 52.24584961 88.31860352 C50.72806951 87.31795229 49.22663613 86.29262959 47.7265625 85.265625 C44.24593099 83.6499737 42.69433612 84.09465961 39 85 C36.28207591 86.34913976 36.28207591 86.34913976 33.6484375 88.140625 C32.64296875 88.79224609 31.6375 89.44386719 30.6015625 90.11523438 C29.00441406 91.17194336 29.00441406 91.17194336 27.375 92.25 C26.25061832 92.98337074 25.12560967 93.71578106 24 94.44726562 C21.72779073 95.92614048 19.45933648 97.41049877 17.19433594 98.90039062 C12.80726339 101.78397545 8.40346344 104.64153976 4 107.5 C2.40485977 108.53632266 0.80980962 109.572784 -0.78515625 110.609375 C-1.60773926 111.14369141 -2.43032227 111.67800781 -3.27783203 112.22851562 C-5.82172431 113.8839849 -8.36209826 115.54476474 -10.90219116 117.20605469 C-13.18285722 118.69483462 -15.46800492 120.17663368 -17.75415039 121.65698242 C-19.40279801 122.72746761 -21.04618917 123.80603439 -22.68945312 124.88476562 C-23.69814453 125.53638672 -24.70683594 126.18800781 -25.74609375 126.859375 C-26.63997803 127.44170898 -27.5338623 128.02404297 -28.45483398 128.62402344 C-31.01991283 130.01076535 -33.1275075 130.59827086 -36 131 C-35.51370962 117.75277926 -34.04550066 104.84616692 -31.07275391 91.91357422 C-29.90581368 86.68910664 -28.95025547 81.4350477 -28.01953125 76.1640625 C-27.84242111 75.16289398 -27.66531097 74.16172546 -27.48283386 73.13021851 C-27.11276004 71.03119722 -26.74390572 68.93196058 -26.3762207 66.83251953 C-25.81028124 63.61237543 -25.23425469 60.39412966 -24.65820312 57.17578125 C-24.29885418 55.13031803 -23.9401086 53.0847487 -23.58203125 51.0390625 C-23.32121513 49.59534775 -23.32121513 49.59534775 -23.05513 48.12246704 C-22.90134384 47.23078827 -22.74755768 46.3391095 -22.58911133 45.42041016 C-22.45080399 44.63703278 -22.31249664 43.8536554 -22.16999817 43.04653931 C-21.84813697 40.7994634 -21.84813697 40.7994634 -23 38 C-24.84356883 36.28643235 -24.84356883 36.28643235 -27.1875 34.5625 C-31.68340671 31.06568367 -36.05316793 27.45758453 -40.375 23.75 C-40.96949951 23.24283447 -41.56399902 22.73566895 -42.17651367 22.21313477 C-48.50244449 16.78052978 -48.50244449 16.78052978 -51 14 C-51 13.34 -51 12.68 -51 12 C-47.66996253 13.46251646 -45.38951187 15.32526766 -42.75 17.8125 C-35.78230192 24.21524959 -28.37958569 30.08230391 -21 36 C-18.65258964 33.02760144 -16.8180615 29.98179849 -15.0390625 26.640625 C-14.48476562 25.60679688 -13.93046875 24.57296875 -13.359375 23.5078125 C-12.50085938 21.89519531 -12.50085938 21.89519531 -11.625 20.25 C-3.78618844 5.53880571 -3.78618844 5.53880571 0 0 Z " fill="#A1CAD1" transform="translate(102,21)"/>
<path d="M0 0 C2.37017699 1.24313942 4.56579758 2.50475441 6.8125 3.9375 C8.12178882 4.74837678 9.43171181 5.55823026 10.7421875 6.3671875 C11.42764648 6.79354492 12.11310547 7.21990234 12.81933594 7.65917969 C16.65729817 10.01901943 20.54920151 12.28691276 24.4375 14.5625 C25.89457876 15.41788782 27.35161424 16.27334939 28.80859375 17.12890625 C29.86175781 17.74636719 30.91492188 18.36382812 32 19 C31.67 19.66 31.34 20.32 31 21 C27.99289235 21.89590541 25.02320384 22.67191489 21.97265625 23.390625 C21.04584045 23.61568222 20.11902466 23.84073944 19.16412354 24.07261658 C16.13214683 24.80655095 13.0974473 25.5284571 10.0625 26.25 C7.97471361 26.75243005 5.88706726 27.2554424 3.79956055 27.7590332 C-8.63534096 30.75163105 -21.08333763 33.68641666 -33.5546875 36.5234375 C-42.57708264 38.5791363 -51.57991037 40.7193884 -60.58480835 42.85018921 C-62.71914391 43.35521335 -64.85370339 43.85928238 -66.98828125 44.36328125 C-68.83740112 44.80087769 -68.83740112 44.80087769 -70.72387695 45.24731445 C-73.47591429 45.8795919 -76.22765343 46.46522764 -79 47 C-75.36062743 42.87277588 -70.9514227 40.29061812 -66.3125 37.4375 C-64.59193999 36.36539804 -62.87189792 35.29246449 -61.15234375 34.21875 C-60.28722168 33.67992187 -59.42209961 33.14109375 -58.53076172 32.5859375 C-54.78784832 30.24038806 -51.07909693 27.84372865 -47.375 25.4375 C-46.68325684 24.98890625 -45.99151367 24.5403125 -45.27880859 24.078125 C-42.47392289 22.25831568 -39.67059876 20.43611185 -36.86767578 18.61328125 C-33.32590809 16.31068883 -29.78071992 14.01389827 -26.2265625 11.73046875 C-23.32611633 9.86628147 -20.45129594 7.96840624 -17.5859375 6.05078125 C-16.16175438 5.11673595 -14.73728558 4.18312605 -13.3125 3.25 C-12.34171509 2.5856897 -12.34171509 2.5856897 -11.35131836 1.90795898 C-7.1472933 -0.81080182 -4.77711701 -1.62799119 0 0 Z " fill="#A7CDD4" transform="translate(149,105)"/>
<path d="M0 0 C6.02530414 4.28723564 11.41149968 9.05048182 16.77734375 14.12109375 C20.63867978 17.67748715 24.82533698 20.82386575 29 24 C26.92657695 37.8773378 24.75074491 51.73344429 22.375 65.5625 C22.16915283 66.76737061 21.96330566 67.97224121 21.7512207 69.21362305 C20.92366875 73.98821909 20.09182877 78.74257583 18.984375 83.4609375 C17.57270114 89.59628927 16.76888832 95.83507805 15.875 102.0625 C15.69324219 103.30966797 15.51148437 104.55683594 15.32421875 105.84179688 C14.87982064 108.8941102 14.43849176 111.94683356 14 115 C13.67 115 13.34 115 13 115 C12.92118591 114.3024057 12.84237183 113.6048114 12.76116943 112.88607788 C12.00015445 106.15508803 11.23615638 99.424442 10.46918869 92.69412804 C10.07543281 89.23798725 9.68264626 85.78174338 9.29248047 82.32519531 C7.35331314 65.15363956 5.26626661 48.01279335 2.93847656 30.88916016 C2.78689087 29.77317444 2.63530518 28.65718872 2.47912598 27.50738525 C2.13675836 25.00112346 1.79068016 22.49552054 1.44177246 19.99017334 C1.25765011 18.6501983 1.07360691 17.31021239 0.88964844 15.97021484 C0.72253357 14.76666351 0.5554187 13.56311218 0.38323975 12.3230896 C-0.09618891 8.16594148 -0.14660362 4.17820331 0 0 Z " fill="#A4CBD2" transform="translate(52,36)"/>
<path d="M0 0 C0.43485514 5.01239935 0.86171061 10.02539883 1.28173828 15.0390625 C1.42514559 16.73813433 1.57059119 18.43703558 1.71826172 20.13574219 C2.61399702 30.45802523 3.22963334 40.63035385 3 51 C-7.2089762 47.14257692 -16.16049355 40.34732465 -25.1875 34.3125 C-25.77761871 33.91903381 -26.36773743 33.52556763 -26.97573853 33.12017822 C-36.16538029 26.98793655 -45.20466942 20.68857635 -54 14 C-51.21955115 11.21955115 -48.17768558 11.16024655 -44.4375 10.5625 C-39.21810464 9.72481926 -34.41328495 8.51754177 -29.42114258 6.77807617 C-24.90209772 5.32580271 -20.25951806 4.3827744 -15.625 3.375 C-13.67940108 2.94661125 -11.73407521 2.51697999 -9.7890625 2.0859375 C-8.94037598 1.9007959 -8.09168945 1.7156543 -7.21728516 1.52490234 C-0.77581395 0 -0.77581395 0 0 0 Z " fill="#A3CBD2" transform="translate(139,47)"/>
<path d="M0 0 C0.66 0 1.32 0 2 0 C0.67616394 4.31766171 -0.99923614 8.13124146 -3.15234375 12.09765625 C-3.76400391 13.22880859 -4.37566406 14.35996094 -5.00585938 15.52539062 C-5.64973068 16.70443194 -6.29361097 17.88346836 -6.9375 19.0625 C-7.57788906 20.24521804 -8.21786659 21.42815901 -8.85742188 22.61132812 C-11.48911776 27.46239321 -14.13019102 32.28481131 -17 37 C-16.02804688 36.69707031 -15.05609375 36.39414062 -14.0546875 36.08203125 C-4.70614471 33.22380469 4.68047386 30.85019136 14.22680664 28.74658203 C19.83873841 27.50720394 25.37878721 26.15925719 30.87890625 24.48046875 C33.32320167 23.92678857 35.50167027 23.85052728 38 24 C40.09101881 26.09101881 39.66291918 30.36536507 39.9375 33.25 C40.02249756 34.11230225 40.10749512 34.97460449 40.19506836 35.86303711 C41.09644403 45.37259182 41.71191941 54.90328052 42.30249023 64.43652344 C42.41765991 66.23331543 42.41765991 66.23331543 42.53515625 68.06640625 C42.63389038 69.6743103 42.63389038 69.6743103 42.73461914 71.31469727 C42.90961664 74.09783918 42.90961664 74.09783918 44 77 C44.83772949 76.15179688 45.67545898 75.30359375 46.53857422 74.4296875 C49.63834636 71.29380403 52.74466026 68.16447162 55.85302734 65.03710938 C57.19923329 63.68082557 58.54364149 62.32275497 59.88623047 60.96289062 C61.81271716 59.01223399 63.74550883 57.06802606 65.6796875 55.125 C66.28183075 54.51253418 66.883974 53.90006836 67.50436401 53.26904297 C68.96543501 51.80757815 70.47828173 50.39820649 72 49 C72.66 49 73.32 49 74 49 C73.47061298 53.08997008 71.38967241 54.97052429 68.51953125 57.80859375 C67.60236328 58.72060547 66.68519531 59.63261719 65.74023438 60.57226562 C65.25901123 61.04317627 64.77778809 61.51408691 64.28198242 61.99926758 C62.82806062 63.42227029 61.38485667 64.85543925 59.94335938 66.29101562 C52.29934361 73.84968299 52.29934361 73.84968299 48.32421875 77.03515625 C47.55722656 77.68355469 46.79023438 78.33195312 46 79 C46 79.66 46 80.32 46 81 C46.73524902 81.42297363 47.47049805 81.84594727 48.22802734 82.28173828 C51.00546656 83.88012946 53.78242565 85.47935093 56.55908203 87.07910156 C57.75160427 87.7659482 58.94430697 88.45248165 60.13720703 89.13867188 C64.0968622 91.41655593 68.04907358 93.70701995 72 96 C73.01739258 96.58104492 74.03478516 97.16208984 75.08300781 97.76074219 C75.99663086 98.29086914 76.91025391 98.82099609 77.8515625 99.3671875 C78.65674316 99.8297998 79.46192383 100.29241211 80.29150391 100.76904297 C80.85530762 101.17525879 81.41911133 101.58147461 82 102 C82 102.66 82 103.32 82 104 C78.9080818 103.35492354 76.45319996 102.2996185 73.69140625 100.77734375 C72.86785645 100.32456055 72.04430664 99.87177734 71.19580078 99.40527344 C70.32681152 98.9209082 69.45782227 98.43654297 68.5625 97.9375 C67.22421143 97.20128418 67.22421143 97.20128418 65.85888672 96.45019531 C61.83743864 94.22000744 57.86173652 91.96137695 54.00390625 89.45703125 C53.42374756 89.0813501 52.84358887 88.70566895 52.24584961 88.31860352 C50.72806951 87.31795229 49.22663613 86.29262959 47.7265625 85.265625 C44.24593099 83.6499737 42.69433612 84.09465961 39 85 C36.28207591 86.34913976 36.28207591 86.34913976 33.6484375 88.140625 C32.64296875 88.79224609 31.6375 89.44386719 30.6015625 90.11523438 C29.00441406 91.17194336 29.00441406 91.17194336 27.375 92.25 C26.25061832 92.98337074 25.12560967 93.71578106 24 94.44726562 C21.72779073 95.92614048 19.45933648 97.41049877 17.19433594 98.90039062 C12.80726339 101.78397545 8.40346344 104.64153976 4 107.5 C2.40485977 108.53632266 0.80980962 109.572784 -0.78515625 110.609375 C-1.60773926 111.14369141 -2.43032227 111.67800781 -3.27783203 112.22851562 C-5.82172431 113.8839849 -8.36209826 115.54476474 -10.90219116 117.20605469 C-13.18285722 118.69483462 -15.46800492 120.17663368 -17.75415039 121.65698242 C-19.40279801 122.72746761 -21.04618917 123.80603439 -22.68945312 124.88476562 C-23.69814453 125.53638672 -24.70683594 126.18800781 -25.74609375 126.859375 C-26.63997803 127.44170898 -27.5338623 128.02404297 -28.45483398 128.62402344 C-31.01991283 130.01076535 -33.1275075 130.59827086 -36 131 C-35.51370962 117.75277926 -34.04550066 104.84616692 -31.07275391 91.91357422 C-29.90581368 86.68910664 -28.95025547 81.4350477 -28.01953125 76.1640625 C-27.84242111 75.16289398 -27.66531097 74.16172546 -27.48283386 73.13021851 C-27.11276004 71.03119722 -26.74390572 68.93196058 -26.3762207 66.83251953 C-25.81028124 63.61237543 -25.23425469 60.39412966 -24.65820312 57.17578125 C-24.29885418 55.13031803 -23.9401086 53.0847487 -23.58203125 51.0390625 C-23.32121513 49.59534775 -23.32121513 49.59534775 -23.05513 48.12246704 C-22.90134384 47.23078827 -22.74755768 46.3391095 -22.58911133 45.42041016 C-22.45080399 44.63703278 -22.31249664 43.8536554 -22.16999817 43.04653931 C-21.84813697 40.7994634 -21.84813697 40.7994634 -23 38 C-24.84356883 36.28643235 -24.84356883 36.28643235 -27.1875 34.5625 C-31.68340671 31.06568367 -36.05316793 27.45758453 -40.375 23.75 C-40.96949951 23.24283447 -41.56399902 22.73566895 -42.17651367 22.21313477 C-48.50244449 16.78052978 -48.50244449 16.78052978 -51 14 C-51 13.34 -51 12.68 -51 12 C-47.66996253 13.46251646 -45.38951187 15.32526766 -42.75 17.8125 C-35.78230192 24.21524959 -28.37958569 30.08230391 -21 36 C-18.65258964 33.02760144 -16.8180615 29.98179849 -15.0390625 26.640625 C-14.48476562 25.60679688 -13.93046875 24.57296875 -13.359375 23.5078125 C-12.50085938 21.89519531 -12.50085938 21.89519531 -11.625 20.25 C-3.78618844 5.53880571 -3.78618844 5.53880571 0 0 Z M31.10546875 26.98828125 C30.32115479 27.19855957 29.53684082 27.40883789 28.72875977 27.62548828 C27.89014404 27.85220215 27.05152832 28.07891602 26.1875 28.3125 C19.47985714 30.10380633 12.76612142 31.79097838 5.9921875 33.31640625 C0.97451327 34.46274175 -4.01074386 35.73671751 -9 37 C-10.58318929 37.39640906 -12.1665031 37.79232151 -13.75 38.1875 C-15.35875 38.5896875 -15.35875 38.5896875 -17 39 C-12.73941531 43.62429314 -7.9148834 47.06562432 -2.75 50.625 C-1.42633423 51.54369873 -1.42633423 51.54369873 -0.07592773 52.48095703 C8.16595775 58.17180033 16.53116465 63.65404769 25 69 C25.64710937 69.41072754 26.29421875 69.82145508 26.9609375 70.24462891 C33.11329501 74.83696234 33.11329501 74.83696234 40 77 C40.2483139 65.78678799 39.47017016 54.78521246 38.5 43.625 C38.35493558 41.90629492 38.21040105 40.18754503 38.06640625 38.46875 C37.71702647 34.3119596 37.36054326 30.15583638 37 26 C34.83625486 26 33.19330708 26.42270037 31.10546875 26.98828125 Z M-19 41 C-21.06788728 47.35852566 -21.90918293 53.7638482 -22.8125 60.375 C-24.26523343 70.60235423 -26.04693873 80.70332556 -28.1328125 90.81884766 C-29.63359353 98.11185114 -31.02449948 105.41633037 -32.3125 112.75 C-32.48394531 113.70874023 -32.65539062 114.66748047 -32.83203125 115.65527344 C-32.98671875 116.54762695 -33.14140625 117.43998047 -33.30078125 118.359375 C-33.50441284 119.52678223 -33.50441284 119.52678223 -33.7121582 120.71777344 C-34.02107563 123.16710349 -34.04876742 125.53383961 -34 128 C-30.53202862 126.70702027 -27.51447193 125.19770442 -24.40234375 123.19921875 C-23.52860107 122.64081299 -22.6548584 122.08240723 -21.75463867 121.50708008 C-20.82498291 120.90661865 -19.89532715 120.30615723 -18.9375 119.6875 C-17.96594971 119.06447998 -16.99439941 118.44145996 -15.9934082 117.79956055 C-7.89782481 112.60065243 0.17219425 107.3619853 8.23046875 102.10546875 C11.37262723 100.05651292 14.52077683 98.01740038 17.67578125 95.98828125 C25.22207653 91.13359583 32.7151333 86.24438806 40 81 C35.59635798 77.26357647 30.83001403 74.28859499 25.9375 71.25 C15.41598217 64.65495808 5.10953362 57.84641021 -4.97045898 50.59179688 C-9.57462326 47.28285722 -14.24746819 44.09291753 -19 41 Z " fill="#168E94" transform="translate(102,21)"/>
<path d="M0 0 C0.66 0.33 1.32 0.66 2 1 C2.45483398 3.12280273 2.45483398 3.12280273 2.74609375 5.93359375 C2.85977295 6.96685791 2.97345215 8.00012207 3.09057617 9.06469727 C3.26230347 10.73423462 3.26230347 10.73423462 3.4375 12.4375 C4.38696837 21.07267141 5.46794565 29.62675244 7.08569336 38.16381836 C7.94272332 42.87028845 8.11146543 47.23883396 8 52 C1.24788528 49.37791278 -4.83455194 45.73558684 -11.0625 42.0625 C-12.65674805 41.13147461 -12.65674805 41.13147461 -14.28320312 40.18164062 C-19.28359508 37.24886858 -24.23115764 34.29769169 -29 31 C-27.41847951 26.87640362 -24.41309347 24.41243329 -21.1875 21.5625 C-16.2578727 17.11187048 -11.44845847 12.56950187 -6.75 7.875 C-6.18949951 7.3188501 -5.62899902 6.7627002 -5.05151367 6.18969727 C-2.17005617 3.36417597 -2.17005617 3.36417597 0 0 Z " fill="#A5CCD3" transform="translate(176,71)"/>
<path d="M0 0 C7.89006979 4.9253281 15.57230164 10.09855721 23.1875 15.4375 C24.23486328 16.16904297 25.28222656 16.90058594 26.36132812 17.65429688 C28.90898373 19.43416586 31.45517459 21.21608798 34 23 C31.01011544 24.99325637 28.98009365 25.67118072 25.5390625 26.55078125 C23.88571899 26.97701782 23.88571899 26.97701782 22.19897461 27.41186523 C21.01956299 27.70907471 19.84015137 28.00628418 18.625 28.3125 C17.42302979 28.61937744 16.22105957 28.92625488 14.98266602 29.24243164 C7.31314877 31.19064025 -0.36767128 33.09180397 -8.0625 34.9375 C-9.38096924 35.25424683 -9.38096924 35.25424683 -10.72607422 35.57739258 C-16.74874768 37 -16.74874768 37 -19 37 C-17.38116782 32.64526819 -15.27726288 28.59792193 -13.0859375 24.51171875 C-12.71143463 23.80852005 -12.33693176 23.10532135 -11.95108032 22.3808136 C-10.76146256 20.14841438 -9.56828842 17.9179389 -8.375 15.6875 C-7.56486817 14.16874566 -6.75496978 12.64986676 -5.9453125 11.13085938 C-3.96624167 7.4191254 -1.9839804 3.70911188 0 0 Z " fill="#A2CBD1" transform="translate(104,21)"/>
<path d="M0 0 C3.61122427 1.34131187 6.70987243 3.01062054 10 5 C11.93237053 6.07180066 13.86992945 7.1342991 15.8125 8.1875 C16.78832031 8.71730469 17.76414063 9.24710938 18.76953125 9.79296875 C19.50558594 10.19128906 20.24164063 10.58960937 21 11 C21 11.99 21 12.98 21 14 C19.3046875 15.2890625 19.3046875 15.2890625 16.875 16.625 C12.61245267 19.05902843 8.43455731 21.58584927 4.3125 24.25 C3.42534302 24.822948 3.42534302 24.822948 2.52026367 25.4074707 C-10.19741653 33.64716639 -22.65779726 42.20788005 -35 51 C-35 47.33383565 -34.03901538 46.17226214 -32.03515625 43.13671875 C-31.39465332 42.15751465 -30.75415039 41.17831055 -30.09423828 40.16943359 C-29.40313965 39.12352051 -28.71204102 38.07760742 -28 37 C-26.60188696 34.84047637 -25.20477198 32.68030628 -23.80859375 30.51953125 C-22.7189853 28.84644873 -21.6293695 27.17337042 -20.53833008 25.5012207 C-19.80145189 24.37081786 -19.0657837 23.23962538 -18.33129883 22.10766602 C-15.91605336 18.38561074 -13.47299396 14.68392948 -11 11 C-10.43168457 10.14841309 -9.86336914 9.29682617 -9.27783203 8.41943359 C-8.76462402 7.6867627 -8.25141602 6.9540918 -7.72265625 6.19921875 C-7.28832275 5.57233154 -6.85398926 4.94544434 -6.40649414 4.29956055 C-5 3 -5 3 -1 3 C-0.67 2.01 -0.34 1.02 0 0 Z " fill="#C2DBE0" transform="translate(112,91)"/>
<path d="M0 0 C6.18896818 3.28046159 11.94748734 6.90304032 17.625 11 C18.69234375 11.76183594 18.69234375 11.76183594 19.78125 12.5390625 C21.85718892 14.02187602 23.92872662 15.51067957 26 17 C28.33237371 18.66801386 30.66625047 20.3339111 33 22 C31.36221955 26.19625909 28.26676818 28.98676785 25.1171875 32.078125 C24.54292023 32.64956238 23.96865295 33.22099976 23.37698364 33.80975342 C21.5476419 35.62792945 19.71145807 37.43901492 17.875 39.25 C16.63105226 40.48391329 15.3875573 41.71828322 14.14453125 42.953125 C11.10157633 45.97406743 8.05246746 48.98867092 5 52 C3.43049103 49.1860201 2.71552199 46.99416814 2.49755859 43.78564453 C2.4376474 42.96444122 2.37773621 42.14323792 2.31600952 41.29714966 C2.26071075 40.4179184 2.20541199 39.53868713 2.1484375 38.6328125 C2.05280014 37.26429642 2.05280014 37.26429642 1.95523071 35.86813354 C1.75383975 32.95423759 1.56453413 30.03968857 1.375 27.125 C1.24032005 25.17052201 1.10491147 23.21609409 0.96875 21.26171875 C0.84048784 19.38546153 0.71286274 17.50916063 0.5859375 15.6328125 C0.52659027 14.7576297 0.46724304 13.8824469 0.40609741 12.98074341 C0.12520194 8.64467358 -0.066405 4.34819921 0 0 Z " fill="#A3CBD2" transform="translate(141,47)"/>
<path d="M0 0 C-2.04098637 3.84312166 -4.08581651 7.68416645 -6.1340332 11.5234375 C-6.82841922 12.82627625 -7.52180275 14.12964989 -8.21411133 15.43359375 C-11.93040059 22.43148718 -15.6766813 29.35132348 -20 36 C-30.85696932 28.02623099 -41.4642686 19.5357314 -51 10 C-39.1438409 7.12809008 -27.26941793 4.33419096 -15.375 1.625 C-14.19574951 1.35026855 -13.01649902 1.07553711 -11.80151367 0.79248047 C-10.69912354 0.54385254 -9.5967334 0.29522461 -8.4609375 0.0390625 C-6.98826416 -0.29810791 -6.98826416 -0.29810791 -5.48583984 -0.64208984 C-3 -1 -3 -1 0 0 Z " fill="#A3CBD2" transform="translate(102,22)"/>
<path d="M0 0 C1.62760417 0.48828125 3.25520833 0.9765625 4.8828125 1.46484375 C7.10758556 2.07134469 7.10758556 2.07134469 9.875 2.375 C13.35477922 3.07095584 15.80446718 4.30256046 18.875 6.0625 C19.84179688 6.61035156 20.80859375 7.15820312 21.8046875 7.72265625 C22.89136719 8.35494141 22.89136719 8.35494141 24 9 C16.65970182 13.89353212 6.39501521 14.88588311 -2.125 16.8125 C-9.10876759 18.40100846 -16.08504739 20.00792771 -23.0390625 21.72265625 C-24.16554199 21.99940186 -25.29202148 22.27614746 -26.45263672 22.5612793 C-28.60411192 23.09221865 -30.7542557 23.62859128 -32.90283203 24.17114258 C-37.69236158 25.34934312 -42.0237481 26.35544656 -47 26 C-44.06454998 21.27775431 -41.2752954 20.11196542 -36.12109375 18.7734375 C-33.7513514 17.90933256 -32.71563455 16.80017306 -31 15 C-30.34 15 -29.68 15 -29 15 C-29 14.34 -29 13.68 -29 13 C-27.9171875 12.8453125 -27.9171875 12.8453125 -26.8125 12.6875 C-22.77258639 11.69996556 -19.92826103 9.92826103 -17 7 C-14.31160615 6.73008094 -11.70858064 6.91262643 -9 7 C-8.7215625 6.0409375 -8.7215625 6.0409375 -8.4375 5.0625 C-7 3 -7 3 -3.375 2.25 C-1.704375 2.12625 -1.704375 2.12625 0 2 C0 1.34 0 0.68 0 0 Z " fill="#F5F9FA" transform="translate(148,113)"/>
<path d="M0 0 C5.23485407 3.85726089 5.23485407 3.85726089 5.73388672 7.03613281 C5.59223508 14.0064143 4.76029359 20.64833342 3.5 27.5 C3.12857651 29.62601764 2.75877893 31.75231999 2.390625 33.87890625 C2.21337891 34.89355957 2.03613281 35.90821289 1.85351562 36.95361328 C0.54257859 44.61456878 -0.41329763 52.30682525 -1.1171875 60.046875 C-1.20210449 60.97927002 -1.28702148 61.91166504 -1.37451172 62.87231445 C-1.53675772 64.69576347 -1.69245375 66.51981201 -1.84033203 68.34448242 C-2.30318629 73.67340993 -3.19117705 78.59421163 -4.625 83.75 C-6.53574077 80.5255366 -6.8531897 78.20538132 -6.78515625 74.48046875 C-6.77355469 73.43930908 -6.76195313 72.39814941 -6.75 71.32543945 C-6.729375 70.20741943 -6.70875 69.08939941 -6.6875 67.9375 C-6.60313495 59.45588305 -6.66725553 51.03229849 -7.125 42.5625 C-7.8720704 28.2990839 -7.71633695 14.02807229 -7.625 -0.25 C-2.953125 -1.40625 -2.953125 -1.40625 0 0 Z " fill="#F2F7F8" transform="translate(71.625,55.25)"/>
<path d="M0 0 C14 0 14 0 20 3 C23.26331306 6.52094303 24.28814732 9.30393216 24.5 14 C24.28038259 18.71823206 23.28358448 21.4638321 20 25 C13.15892115 30.53108503 9.98864261 29 0 29 C0 19.43 0 9.86 0 0 Z " fill="#212123" transform="translate(138,155)"/>
<path d="M0 0 C0.12117188 1.23234375 0.24234375 2.4646875 0.3671875 3.734375 C1.45525051 14.71809088 1.45525051 14.71809088 3.125 25.625 C4.0041044 30.50128219 4.16497756 35.0506733 4 40 C0.37 38.02 -3.26 36.04 -7 34 C-7 33.34 -7 32.68 -7 32 C-7.99 31.67 -8.98 31.34 -10 31 C-10.33 29.35 -10.66 27.7 -11 26 C-11.66 26 -12.32 26 -13 26 C-14.42857143 17.57142857 -14.42857143 17.57142857 -12 13 C-13.32 12.34 -14.64 11.68 -16 11 C-16 10.01 -16 9.02 -16 8 C-17.32 8 -18.64 8 -20 8 C-19.67 7.01 -19.34 6.02 -19 5 C-16.54692194 3.94952628 -14.22369646 3.09779563 -11.6875 2.3125 C-11.01009766 2.08755859 -10.33269531 1.86261719 -9.63476562 1.63085938 C-6.22897914 0.53554779 -3.61260221 0 0 0 Z " fill="#C8DFE3" transform="translate(135,54)"/>
<path d="M0 0 C2.875 1 2.875 1 5 2 C5.66 1.34 6.32 0.68 7 0 C10.55279777 -0.47370637 12.49497285 -0.26650121 15.6796875 1.4140625 C19.15288763 5.28486803 18.55302116 8.73975917 18.3125 13.75 C18.28994141 14.63816406 18.26738281 15.52632812 18.24414062 16.44140625 C18.18532552 18.62932812 18.10321268 20.81379671 18 23 C16.02 23 14.04 23 12 23 C11.67 17.72 11.34 12.44 11 7 C8.525 6.505 8.525 6.505 6 6 C4.47893366 9.04213267 4.62570662 12.28047572 4.4375 15.625 C4.39431641 16.33140625 4.35113281 17.0378125 4.30664062 17.765625 C4.20055249 19.51018537 4.09977111 21.25506697 4 23 C2.02 23 0.04 23 -2 23 C-2.33 17.39 -2.66 11.78 -3 6 C-4.65 6.33 -6.3 6.66 -8 7 C-8.33 12.28 -8.66 17.56 -9 23 C-10.98 23 -12.96 23 -15 23 C-15 15.74 -15 8.48 -15 1 C-12.66666667 1 -10.33333333 1 -8 1 C-5.21084611 -0.39457694 -3.09726736 -0.1821922 0 0 Z " fill="#222224" transform="translate(219,161)"/>
<path d="M0 0 C1.98 0 3.96 0 6 0 C6 9.9 6 19.8 6 30 C4.35 30 2.7 30 1 30 C1 29.34 1 28.68 1 28 C0.46375 28.495 -0.0725 28.99 -0.625 29.5 C-3.70110743 31.44280469 -5.41889189 31.52224493 -9 31 C-11.30275556 29.1329009 -12.67823871 27.64352259 -14 25 C-14.58450485 19.34700312 -15.04910419 14.60451229 -11.875 9.75 C-8.53031591 7.71410533 -6.84709172 7.414573 -3 8 C-2.01 8.66 -1.02 9.32 0 10 C0 6.7 0 3.4 0 0 Z " fill="#222224" transform="translate(307,153)"/>
<path d="M0 0 C4.82455151 0.32163677 7.08929082 1.70382249 10.5625 4.9375 C12.30559798 8.33195396 12.29459929 11.55555615 11.75 15.25 C10.13129806 18.89207936 8.32053617 21.41648143 4.75 23.25 C-0.30747126 23.89221857 -0.30747126 23.89221857 -3.25 23.25 C-6.55739971 20.57593215 -8.98885988 18.35777381 -9.5234375 14.04296875 C-9.80026203 6.94135486 -9.80026203 6.94135486 -6.8125 3.1875 C-5.966875 2.548125 -5.12125 1.90875 -4.25 1.25 C-3.25 0.25 -3.25 0.25 0 0 Z " fill="#1F1F21" transform="translate(251.25,160.75)"/>
<path d="M0 0 C2.96061983 0.54269075 4.85778045 1.44762906 7.15234375 3.39453125 C9.68792737 7.59661152 9.86984098 11.60267474 9.15234375 16.39453125 C7.35840707 19.26482994 6.16971099 20.88584763 3.15234375 22.39453125 C-0.25605466 22.87110377 -3.44450955 22.93411966 -6.84765625 22.39453125 C-10.39519247 19.69840372 -11.48103963 18.28260687 -12.31640625 13.98046875 C-12.57040215 9.77683664 -12.31903601 6.31150776 -9.91015625 2.76953125 C-6.29847509 -0.03136434 -4.44741782 -0.31820128 0 0 Z " fill="#1F1F21" transform="translate(262.84765625,198.60546875)"/>
<path d="M0 0 C2.49074564 1.32783859 4.81840504 2.67414192 7.1875 4.1875 C8.50410139 5.00439095 9.8218209 5.81948243 11.140625 6.6328125 C11.78837891 7.0340332 12.43613281 7.43525391 13.10351562 7.84863281 C17.30723526 10.40073654 21.65628358 12.69719816 26 15 C26 15.33 26 15.66 26 16 C18.68601994 16.70345263 14.35455147 13.78911622 8.22851562 10.11132812 C3.75162 7.54352583 3.75162 7.54352583 -1.33203125 7.12109375 C-4.14219966 7.96768783 -4.14219966 7.96768783 -7.125 9.625 C-10 11 -10 11 -12.375 10.6875 C-12.91125 10.460625 -13.4475 10.23375 -14 10 C-14.33 10.99 -14.66 11.98 -15 13 C-15.99 12.67 -16.98 12.34 -18 12 C-18.33 12.66 -18.66 13.32 -19 14 C-20.6875 14.9375 -20.6875 14.9375 -23 16 C-27.7236455 18.10834923 -27.7236455 18.10834923 -31 22 C-34.60162737 24.62821457 -36.65555925 25 -41 25 C-43.76441969 26.40759341 -43.76441969 26.40759341 -46 28 C-46.66 27.34 -47.32 26.68 -48 26 C-41.02239676 21.41375941 -34.03662956 16.84059637 -27.03692627 12.28817749 C-23.65042787 10.08352967 -20.28024334 7.85657949 -16.921875 5.609375 C-15.53170096 4.697229 -14.14111835 3.78570518 -12.75 2.875 C-12.13898438 2.45621582 -11.52796875 2.03743164 -10.8984375 1.60595703 C-6.86284135 -0.99732204 -4.56741681 -1.51461435 0 0 Z " fill="#A0CAD1" transform="translate(149,105)"/>
<path d="M0 0 C5.61 0 11.22 0 17 0 C17 1.98 17 3.96 17 6 C13.7 6 10.4 6 7 6 C7 7.65 7 9.3 7 11 C9.97 11 12.94 11 16 11 C16 12.98 16 14.96 16 17 C12.7 17 9.4 17 6 17 C6 19.31 6 21.62 6 24 C9.63 24 13.26 24 17 24 C17 25.65 17 27.3 17 29 C11.39 29 5.78 29 0 29 C0 19.43 0 9.86 0 0 Z " fill="#2C2C2E" transform="translate(138,192)"/>
<path d="M0 0 C0.66 0.33 1.32 0.66 2 1 C2.5625 3.15234375 2.5625 3.15234375 3 5.9375 C3.60825379 9.64928495 4.26595889 13.32411029 5.0625 17 C6.14418535 22.29770306 6.61079255 27.61254954 7 33 C0.52223876 31.94893468 -4.61539736 28.98716887 -9.625 24.8125 C-11.7779119 20.40881658 -11.35116217 16.6477149 -10 12 C-7.42806915 7.39883931 -3.86205012 3.56496934 0 0 Z " fill="#D8E8EB" transform="translate(171,80)"/>
<path d="M0 0 C4.56944444 2.13888889 4.56944444 2.13888889 6 5 C6.13415472 7.6723621 6.04318541 10.32250488 6 13 C1.38 13 -3.24 13 -8 13 C-7.01 14.32 -6.02 15.64 -5 17 C-1.24315896 17.33543224 1.41996227 17.19334591 5 16 C5 17.65 5 19.3 5 21 C1.0649579 22.96752105 -3.7105522 22.46422595 -8 22 C-11.00197464 20.19881522 -12.45166366 19.09667268 -14 16 C-14.53118252 11.08003072 -14.75105553 7.22672403 -12.125 2.9375 C-8.39540079 -0.46301693 -4.88666322 -0.54296258 0 0 Z " fill="#222224" transform="translate(185,199)"/>
<path d="M0 0 C1.5625 1.125 1.5625 1.125 2.5625 3.125 C2.64558638 4.50048156 2.66986016 5.87985796 2.66015625 7.2578125 C2.65693359 8.06347656 2.65371094 8.86914062 2.65039062 9.69921875 C2.64201172 10.54097656 2.63363281 11.38273438 2.625 12.25 C2.62048828 13.09949219 2.61597656 13.94898438 2.61132812 14.82421875 C2.59952874 16.92450909 2.58159306 19.0247633 2.5625 21.125 C1.2425 21.125 -0.0775 21.125 -1.4375 21.125 C-1.4375 20.465 -1.4375 19.805 -1.4375 19.125 C-2.13875 19.62 -2.84 20.115 -3.5625 20.625 C-6.91071887 22.3718968 -8.7133163 22.67966566 -12.4375 22.125 C-15.52634321 20.01158096 -16.30858765 18.81253254 -17 15.125 C-16.4375 12.125 -16.4375 12.125 -14.5 9.75 C-10.38678084 7.56747555 -6.99770278 7.76733704 -2.4375 8.125 C-2.7675 7.135 -3.0975 6.145 -3.4375 5.125 C-6.4075 5.125 -9.3775 5.125 -12.4375 5.125 C-12.7675 3.475 -13.0975 1.825 -13.4375 0.125 C-8.9583651 -1.36804497 -4.44534049 -1.59576325 0 0 Z " fill="#151517" transform="translate(194.4375,161.875)"/>
<path d="M0 0 C2.6796875 1.41015625 2.6796875 1.41015625 5 4 C5.61987346 7.2688019 5.47149296 10.43805433 5.3125 13.75 C5.28994141 14.63816406 5.26738281 15.52632812 5.24414062 16.44140625 C5.18532552 18.62932812 5.10321268 20.81379671 5 23 C3.02 23 1.04 23 -1 23 C-1.33 17.72 -1.66 12.44 -2 7 C-3.65 6.67 -5.3 6.34 -7 6 C-9.05922402 8.05922402 -8.41427579 12.21708124 -8.5625 15.0625 C-8.60568359 15.82111328 -8.64886719 16.57972656 -8.69335938 17.36132812 C-8.79973633 19.24065438 -8.90039934 21.12030244 -9 23 C-10.98 23 -12.96 23 -15 23 C-15 15.74 -15 8.48 -15 1 C-12.66666667 1 -10.33333333 1 -8 1 C-5.14675563 -0.42662219 -3.16545451 -0.31033868 0 0 Z " fill="#222223" transform="translate(283,161)"/>
<path d="M0 0 C2.475 0.495 2.475 0.495 5 1 C5.66 1 6.32 1 7 1 C7.33 0.67 7.66 0.34 8 0 C15.09391743 -0.58146864 15.09391743 -0.58146864 18.24609375 1.44140625 C20.87196417 5.272019 20.43386631 8.72406017 20.25 13.25 C20.23195313 14.09046875 20.21390625 14.9309375 20.1953125 15.796875 C20.14830798 17.86507395 20.07656724 19.93268441 20 22 C18.02 22 16.04 22 14 22 C13.67 16.72 13.34 11.44 13 6 C10.03 5.505 10.03 5.505 7 5 C6.67 10.61 6.34 16.22 6 22 C4.02 22 2.04 22 0 22 C0 14.74 0 7.48 0 0 Z " fill="#1D1D1F" transform="translate(277,199)"/>
<path d="M0 0 C-0.309375 1.0725 -0.61875 2.145 -0.9375 3.25 C-1.66812096 5.82866222 -2.37482904 8.39512102 -3 11 C-3.66 11 -4.32 11 -5 11 C-5.268125 11.598125 -5.53625 12.19625 -5.8125 12.8125 C-7.00987475 15.01819033 -8.04478984 16.43583187 -10 18 C-12.79784711 18 -14.9790678 17.62804225 -17.6875 17 C-18.49574219 16.814375 -19.30398437 16.62875 -20.13671875 16.4375 C-21.05904297 16.2209375 -21.05904297 16.2209375 -22 16 C-22 15.34 -22 14.68 -22 14 C-22.61875 13.731875 -23.2375 13.46375 -23.875 13.1875 C-26 12 -26 12 -28 9 C-27 7 -27 7 -24.73095703 6.13037109 C-23.74981934 5.84758301 -22.76868164 5.56479492 -21.7578125 5.2734375 C-20.15873047 4.809375 -20.15873047 4.809375 -18.52734375 4.3359375 C-17.40457031 4.01882812 -16.28179687 3.70171875 -15.125 3.375 C-14.00996094 3.05015625 -12.89492187 2.7253125 -11.74609375 2.390625 C-3.41908482 0 -3.41908482 0 0 0 Z " fill="#BBD8DD" transform="translate(92,27)"/>
<path d="M0 0 C0.99 0 1.98 0 3 0 C3 0.99 3 1.98 3 3 C3.99 3 4.98 3 6 3 C6.33 3.33 6.66 3.66 7 4 C7.66 3.67 8.32 3.34 9 3 C9.99 4.32 10.98 5.64 12 7 C11.34 7 10.68 7 10 7 C9.67 7.99 9.34 8.98 9 10 C5.59704834 15.25336305 0.68064704 18.22583638 -4.4375 21.625 C-5.28376953 22.19734375 -6.13003906 22.7696875 -7.00195312 23.359375 C-10.94152374 26.01249225 -14.88787402 28.61885108 -19 31 C-17.43318919 26.44672661 -15.01457939 22.80909473 -12.3125 18.875 C-8.50292164 13.28865196 -8.50292164 13.28865196 -4.890625 7.57421875 C-4.28734375 6.58035156 -3.6840625 5.58648437 -3.0625 4.5625 C-2.53785156 3.67691406 -2.01320313 2.79132813 -1.47265625 1.87890625 C-0.98667969 1.25886719 -0.50070313 0.63882813 0 0 Z " fill="#EBF3F5" transform="translate(95,111)"/>
<path d="M0 0 C0.33 0.66 0.66 1.32 1 2 C1.99 1.67 2.98 1.34 4 1 C4.495 1.99 4.495 1.99 5 3 C3.35 3 1.7 3 0 3 C0.33 4.32 0.66 5.64 1 7 C-6.03423792 12.48670558 -13.4668405 17.23887391 -21 22 C-21.33 20.68 -21.66 19.36 -22 18 C-21.34 18 -20.68 18 -20 18 C-19.67 17.01 -19.34 16.02 -19 15 C-19.66 14.34 -20.32 13.68 -21 13 C-21.33 13.66 -21.66 14.32 -22 15 C-22.66 14.67 -23.32 14.34 -24 14 C-23.67 13.34 -23.34 12.68 -23 12 C-23.99 12 -24.98 12 -26 12 C-26 11.01 -26 10.02 -26 9 C-26.66 8.67 -27.32 8.34 -28 8 C-23.25 3.125 -23.25 3.125 -21 2 C-21 3.32 -21 4.64 -21 6 C-20.34 6.33 -19.68 6.66 -19 7 C-18.67 6.34 -18.34 5.68 -18 5 C-16.68671343 3.64691687 -15.35500919 2.31129922 -14 1 C-12.4221875 1.4640625 -12.4221875 1.4640625 -10.8125 1.9375 C-7.87247604 2.75685094 -4.99838377 3.45483931 -2 4 C-2 3.34 -2 2.68 -2 2 C-1.34 2 -0.68 2 0 2 C0 1.34 0 0.68 0 0 Z " fill="#D3E5E8" transform="translate(124,102)"/>
<path d="M0 0 C1.03125 0.309375 2.0625 0.61875 3.125 0.9375 C6.39046352 1.87805947 9.64534137 2.45389278 13 3 C13.66 3.33 14.32 3.66 15 4 C15 4.66 15 5.32 15 6 C10.66666667 6 6.33333333 6 2 6 C1.34 6.165 0.68 6.33 0 6.5 C-2 7 -2 7 -4 7 C-4.66 7.66 -5.32 8.32 -6 9 C-6.66 8.67 -7.32 8.34 -8 8 C-8 8.66 -8 9.32 -8 10 C-8.59167969 10.19335938 -9.18335938 10.38671875 -9.79296875 10.5859375 C-11.4213814 11.1225433 -13.04762539 11.66576566 -14.671875 12.21484375 C-16.42178922 12.80499939 -18.17817714 13.37601398 -19.9375 13.9375 C-22.44733464 15.23044512 -23.04314637 16.3903992 -24 19 C-24.99 18.67 -25.98 18.34 -27 18 C-27.33 19.65 -27.66 21.3 -28 23 C-30.03959477 23.50838564 -32.08179138 24.00633886 -34.125 24.5 C-35.26195313 24.7784375 -36.39890625 25.056875 -37.5703125 25.34375 C-40.81466698 25.96453765 -43.70814457 26.12006768 -47 26 C-44.06454998 21.27775431 -41.2752954 20.11196542 -36.12109375 18.7734375 C-33.7513514 17.90933256 -32.71563455 16.80017306 -31 15 C-30.34 15 -29.68 15 -29 15 C-29 14.34 -29 13.68 -29 13 C-27.9171875 12.8453125 -27.9171875 12.8453125 -26.8125 12.6875 C-22.77258639 11.69996556 -19.92826103 9.92826103 -17 7 C-14.31160615 6.73008094 -11.70858064 6.91262643 -9 7 C-8.7215625 6.0409375 -8.7215625 6.0409375 -8.4375 5.0625 C-7 3 -7 3 -3.375 2.25 C-1.704375 2.12625 -1.704375 2.12625 0 2 C0 1.34 0 0.68 0 0 Z " fill="#E3EFF1" transform="translate(148,113)"/>
<path d="M0 0 C1.32 0 2.64 0 4 0 C4.08302368 0.83978394 4.08302368 0.83978394 4.16772461 1.6965332 C4.4207582 4.23555805 4.6790698 6.774019 4.9375 9.3125 C5.02451172 10.19357422 5.11152344 11.07464844 5.20117188 11.98242188 C5.28818359 12.82998047 5.37519531 13.67753906 5.46484375 14.55078125 C5.543396 15.33106689 5.62194824 16.11135254 5.70288086 16.9152832 C5.96337997 19.18882001 5.96337997 19.18882001 7 22 C7.06970052 24.39490986 7.08448003 26.79167691 7.0625 29.1875 C7.05347656 30.45980469 7.04445312 31.73210937 7.03515625 33.04296875 C7.02355469 34.01878906 7.01195312 34.99460938 7 36 C2.66376368 36 0.04697844 34.00022174 -3 31 C-4.0625 27.8125 -4.0625 27.8125 -4 25 C-3.34 24.34 -2.68 23.68 -2 23 C-1.67 22.34 -1.34 21.68 -1 21 C-0.34 21.33 0.32 21.66 1 22 C1 21.34 1 20.68 1 20 C0.34 19.67 -0.32 19.34 -1 19 C-0.67 18.67 -0.34 18.34 0 18 C-0.350625 17.38125 -0.70125 16.7625 -1.0625 16.125 C-1.371875 15.42375 -1.68125 14.7225 -2 14 C-1.67 13.34 -1.34 12.68 -1 12 C-1.37125 11.0925 -1.7425 10.185 -2.125 9.25 C-3 6 -3 6 -1.625 2.625 C-1.08875 1.75875 -0.5525 0.8925 0 0 Z " fill="#E1EDEF" transform="translate(131,54)"/>
<path d="M0 0 C2.3125 1.5625 2.3125 1.5625 4 3 C1 4 1 4 -1.3125 2.875 C-4.102845 1.64270355 -4.102845 1.64270355 -7.125 3.3125 C-8.07375 3.869375 -9.0225 4.42625 -10 5 C-10.99 5.33 -11.98 5.66 -13 6 C-13.33 6.66 -13.66 7.32 -14 8 C-16.02380428 8.22849403 -18.047915 8.45500649 -20.07421875 8.66015625 C-22.58324941 9.10292637 -23.42018145 10.04403418 -25 12 C-29.30869212 15.09341998 -29.30869212 15.09341998 -32.3125 14.6875 C-32.869375 14.460625 -33.42625 14.23375 -34 14 C-34 14.66 -34 15.32 -34 16 C-34.639375 16.103125 -35.27875 16.20625 -35.9375 16.3125 C-36.618125 16.539375 -37.29875 16.76625 -38 17 C-38.33 17.99 -38.66 18.98 -39 20 C-40.99609375 20.7734375 -40.99609375 20.7734375 -43.4375 21.375 C-45.89429819 22.04850043 -45.89429819 22.04850043 -48 23 C-48.495 24.2684375 -48.495 24.2684375 -49 25.5625 C-49.33 26.366875 -49.66 27.17125 -50 28 C-54.42268601 29.75830925 -59.26491828 30.30548914 -64 30 C-62.625 28.5 -62.625 28.5 -61 27 C-60.34 27 -59.68 27 -59 27 C-59 25.68 -59 24.36 -59 23 C-55.2556871 19.93647126 -51.69200955 19.59716485 -47 19 C-44.84971696 18.05021103 -44.84971696 18.05021103 -43 17 C-40.95392708 16.42454199 -38.97824776 15.99680114 -36.875 15.6875 C-34.81698084 15.18290099 -34.81698084 15.18290099 -34.125 13.125 C-32.46818239 9.99545562 -30.21220037 9.27149598 -27 8 C-26.34 8.33 -25.68 8.66 -25 9 C-24.34 7.68 -23.68 6.36 -23 5 C-21.68 5 -20.36 5 -19 5 C-18.67 4.34 -18.34 3.68 -18 3 C-16.3373217 2.64731066 -14.66934283 2.31966139 -13 2 C-11.66099376 1.4725127 -10.32793461 0.92977042 -9 0.375 C-5.60194635 -0.92801305 -3.50709032 -1.36386846 0 0 Z " fill="#B9D7DC" transform="translate(153,112)"/>
<path d="M0 0 C1 3 1 3 0 6 C-1.299375 5.979375 -2.59875 5.95875 -3.9375 5.9375 C-5.29165633 5.91600546 -6.64756083 5.92851801 -8 6 C-9.25949049 7.03406673 -9.25949049 7.03406673 -9.09765625 9.28515625 C-9.08605469 10.20167969 -9.07445312 11.11820313 -9.0625 12.0625 C-9.041875 13.691875 -9.02125 15.32125 -9 17 C-5.7 16.67 -2.4 16.34 1 16 C1 17.65 1 19.3 1 21 C-1.43954658 22.21977329 -3.15305849 22.20153813 -5.875 22.25 C-6.73867187 22.27578125 -7.60234375 22.3015625 -8.4921875 22.328125 C-11.51033741 21.93322688 -12.8186724 21.09329196 -15 19 C-16.54980187 14.35059438 -16.58774702 9.85068323 -16 5 C-12.3159159 -1.47890652 -6.65771654 -0.52468869 0 0 Z " fill="#202022" transform="translate(211,199)"/>
<path d="M0 0 C4.28008526 0.41226741 6.88598751 2.04972417 10.3125 4.5625 C11.19550781 5.20316406 12.07851562 5.84382813 12.98828125 6.50390625 C13.65214844 6.99761719 14.31601563 7.49132812 15 8 C14.41463247 11.66060821 12.916761 13.54535164 10.4375 16.25 C9.47650391 17.30960938 9.47650391 17.30960938 8.49609375 18.390625 C8.00238281 18.92171875 7.50867188 19.4528125 7 20 C4.36 19.34 1.72 18.68 -1 18 C-1.02684312 15.18743719 -1.04676188 12.37512759 -1.0625 9.5625 C-1.07087891 8.76005859 -1.07925781 7.95761719 -1.08789062 7.13085938 C-1.0965143 5.08704779 -1.0522815 3.04316098 -1 1 C-0.67 0.67 -0.34 0.34 0 0 Z " fill="#F0F6F7" transform="translate(149,58)"/>
<path d="M0 0 C1.19109375 -0.00386719 1.19109375 -0.00386719 2.40625 -0.0078125 C4.5 0.125 4.5 0.125 6.5 1.125 C6.17 2.445 5.84 3.765 5.5 5.125 C3.44921875 5.35286458 1.3984375 5.58072917 -0.65234375 5.80859375 C-2.51140229 5.94386614 -2.51140229 5.94386614 -3.5 7.125 C-3.66053815 8.99821948 -3.66053815 8.99821948 -3.625 11.125 C-3.62757813 11.846875 -3.63015625 12.56875 -3.6328125 13.3125 C-3.69695276 15.14589415 -3.69695276 15.14589415 -2.5 16.125 C-0.98071962 16.19679964 0.54167482 16.20892007 2.0625 16.1875 C2.88878906 16.17847656 3.71507812 16.16945312 4.56640625 16.16015625 C5.20449219 16.14855469 5.84257812 16.13695312 6.5 16.125 C6.5 17.775 6.5 19.425 6.5 21.125 C2.80846481 22.9707676 -1.47021939 22.60675083 -5.5 22.125 C-8.59799981 19.93373184 -9.30352112 18.71443664 -10.5 15.125 C-11.03094699 10.47703781 -11.14784823 7.16155716 -8.625 3.125 C-5.62032607 0.29707159 -4.02255492 -0.01306024 0 0 Z " fill="#202022" transform="translate(324.5,198.875)"/>
<path d="M0 0 C1.32 0 2.64 0 4 0 C4 1.32 4 2.64 4 4 C5.98 4 7.96 4 10 4 C10 5.65 10 7.3 10 9 C8.02 9 6.04 9 4 9 C4.33 12.96 4.66 16.92 5 21 C6.65 21 8.3 21 10 21 C10 22.65 10 24.3 10 26 C8.56416999 26.10836453 7.1259798 26.18576167 5.6875 26.25 C4.88699219 26.29640625 4.08648437 26.3428125 3.26171875 26.390625 C1 26 1 26 -0.78125 24.40625 C-2.39814904 21.21391087 -2.29429009 18.80966967 -2.1875 15.25 C-2.16042969 14.07953125 -2.13335937 12.9090625 -2.10546875 11.703125 C-2.07066406 10.81109375 -2.03585938 9.9190625 -2 9 C-2.99 9 -3.98 9 -5 9 C-4.625 7.0625 -4.625 7.0625 -4 5 C-3.34 4.67 -2.68 4.34 -2 4 C-0.86649466 1.98330173 -0.86649466 1.98330173 0 0 Z " fill="#1E1E20" transform="translate(219,195)"/>
<path d="M0 0 C5.08938811 1.59043379 8.87456643 4.7446951 13 8 C8.6269457 12.81035973 3.53722562 16.59926143 -2 20 C-2.66 20 -3.32 20 -4 20 C-7.08108108 15.89189189 -7.08108108 15.89189189 -6.8125 12.9375 C-5.96013121 10.90492826 -5.04085756 8.9429341 -4 7 C-3.34 7 -2.68 7 -2 7 C-1.855625 6.21625 -1.71125 5.4325 -1.5625 4.625 C-1 2 -1 2 0 0 Z " fill="#EDF4F6" transform="translate(105,25)"/>
<path d="M0 0 C7 0 7 0 9.40234375 1.12890625 C12.23517893 4.44657875 11.59550187 7.99637757 11.44921875 12.16796875 C11 15 11 15 8.875 17.75 C6 19 6 19 0 19 C0 12.73 0 6.46 0 0 Z " fill="#EFEFEF" transform="translate(144,160)"/>
<path d="M0 0 C1.98 0 3.96 0 6 0 C6 9.9 6 19.8 6 30 C4.02 30 2.04 30 0 30 C0 20.1 0 10.2 0 0 Z " fill="#1B1B1D" transform="translate(160,191)"/>
<path d="M0 0 C1.65 0 3.3 0 5 0 C5.33 0.66 5.66 1.32 6 2 C6.99 1.34 7.98 0.68 9 0 C11.6875 -0.125 11.6875 -0.125 14 0 C14 1.65 14 3.3 14 5 C13.030625 5.309375 12.06125 5.61875 11.0625 5.9375 C8.15934208 6.69523342 8.15934208 6.69523342 7 8 C6.76472227 10.34987262 6.58613583 12.70556039 6.4375 15.0625 C6.35371094 16.35285156 6.26992187 17.64320313 6.18359375 18.97265625 C6.12300781 19.97167969 6.06242188 20.97070312 6 22 C4.02 22 2.04 22 0 22 C0 14.74 0 7.48 0 0 Z " fill="#1D1D1F" transform="translate(234,199)"/>
<path d="M0 0 C1.65 0 3.3 0 5 0 C5 9.57 5 19.14 5 29 C3.35 29 1.7 29 0 29 C0 28.34 0 27.68 0 27 C-0.66 27 -1.32 27 -2 27 C-2.02685095 24.52076199 -2.04676547 22.0418116 -2.0625 19.5625 C-2.07506836 18.50192383 -2.07506836 18.50192383 -2.08789062 17.41992188 C-2.09653588 15.61306441 -2.05220011 13.80612397 -2 12 C-1.67 11.67 -1.34 11.34 -1 11 C-0.76636119 9.15108054 -0.58696365 7.29511969 -0.4375 5.4375 C-0.35371094 4.42558594 -0.26992188 3.41367188 -0.18359375 2.37109375 C-0.12300781 1.58863281 -0.06242187 0.80617187 0 0 Z " fill="#19191B" transform="translate(308,154)"/>
<path d="M0 0 C0.98613281 0.22042969 1.97226563 0.44085938 2.98828125 0.66796875 C3.98214844 0.88066406 4.97601563 1.09335938 6 1.3125 C7.13888672 1.58126953 7.13888672 1.58126953 8.30078125 1.85546875 C7.97078125 4.16546875 7.64078125 6.47546875 7.30078125 8.85546875 C7.96078125 9.18546875 8.62078125 9.51546875 9.30078125 9.85546875 C5.51285977 12.52929568 2.94529453 13.54720477 -1.69921875 12.85546875 C-4.07421875 11.23046875 -4.07421875 11.23046875 -5.69921875 8.85546875 C-6.15056458 5.69604791 -6.3434387 3.80891427 -4.52734375 1.12109375 C-2.69921875 -0.14453125 -2.69921875 -0.14453125 0 0 Z " fill="#1B1B1D" transform="translate(183.69921875,171.14453125)"/>
<path d="M0 0 C0.99 0.33 1.98 0.66 3 1 C4.32388229 7.43028541 5.24794402 13.4294834 5 20 C4.38125 19.814375 3.7625 19.62875 3.125 19.4375 C0.95839822 18.76313824 0.95839822 18.76313824 -1 20 C-4.01355734 17.66692335 -5.33637082 15.75786671 -6 12.0625 C-6.2761675 8.76076413 -6.08127093 8.12611007 -4.1875 5.1875 C-3.465625 4.465625 -2.74375 3.74375 -2 3 C-1.34 2.01 -0.68 1.02 0 0 Z " fill="#F2F7F8" transform="translate(171,87)"/>
<path d="M0 0 C1.98 0 3.96 0 6 0 C6 7.59 6 15.18 6 23 C4.02 23 2.04 23 0 23 C0 15.41 0 7.82 0 0 Z " fill="#39393B" transform="translate(167,161)"/>
<path d="M0 0 C0.99 0.66 1.98 1.32 3 2 C2.21815855 7.80548302 1.20524592 13.55452425 0.15234375 19.31640625 C-0.20922238 21.31701429 -0.57054312 23.3176667 -0.93164062 25.31835938 C-1.4976408 28.44796401 -2.06519638 31.5772539 -2.63696289 34.70581055 C-3.19111096 37.74183709 -3.73865565 40.7789951 -4.28515625 43.81640625 C-4.45700943 44.74779922 -4.62886261 45.6791922 -4.80592346 46.6388092 C-5.61310566 51.15405181 -6.20903669 55.39024103 -6 60 C-6.66 60 -7.32 60 -8 60 C-8.90074801 55.67325756 -8.96262568 52.18490871 -8.29296875 47.82421875 C-8.11830078 46.66599609 -7.94363281 45.50777344 -7.76367188 44.31445312 C-7.57353516 43.11755859 -7.38339844 41.92066406 -7.1875 40.6875 C-6.91969727 38.90956055 -6.91969727 38.90956055 -6.64648438 37.09570312 C-5.76946802 31.38718154 -4.78278281 25.74885359 -3.47094727 20.12475586 C-2.61372452 16.25725478 -2.00569686 12.34717694 -1.375 8.4375 C-1.2409375 7.61958984 -1.106875 6.80167969 -0.96875 5.95898438 C-0.64356392 3.97302652 -0.32145079 1.98656588 0 0 Z " fill="#22949A" transform="translate(75,90)"/>
<path d="M0 0 C1.98 0 3.96 0 6 0 C6 7.26 6 14.52 6 22 C4.02 22 2.04 22 0 22 C0 14.74 0 7.48 0 0 Z " fill="#1D1D1F" transform="translate(303,199)"/>
<path d="M0 0 C0.99 0 1.98 0 3 0 C3 0.99 3 1.98 3 3 C3.99 3 4.98 3 6 3 C6.33 3.33 6.66 3.66 7 4 C7.66 3.67 8.32 3.34 9 3 C9.99 4.32 10.98 5.64 12 7 C11.34 7 10.68 7 10 7 C9.67 7.99 9.34 8.98 9 10 C6.20835304 14.13577327 3.56555151 16.02851185 -1 18 C-1.33 17.34 -1.66 16.68 -2 16 C-1.34 15.67 -0.68 15.34 0 15 C0 13.02 0 11.04 0 9 C-1.32 8.67 -2.64 8.34 -4 8 C-2.87548273 5.0280615 -1.77706209 2.66559313 0 0 Z " fill="#E0EDEF" transform="translate(95,111)"/>
<path d="M0 0 C1.625 2 1.625 2 3 4 C2.01 4.66 1.02 5.32 0 6 C0.99 6.33 1.98 6.66 3 7 C3.33 10.3 3.66 13.6 4 17 C3.01 17 2.02 17 1 17 C1.52268466 19.76276177 2.10869587 22.3260876 3 25 C2.34 25.99 1.68 26.98 1 28 C0.67 26.35 0.34 24.7 0 23 C-0.66 23 -1.32 23 -2 23 C-3.42857143 14.57142857 -3.42857143 14.57142857 -1 10 C-2.32 9.34 -3.64 8.68 -5 8 C-5 7.01 -5 6.02 -5 5 C-6.32 5 -7.64 5 -9 5 C-8.67 4.01 -8.34 3.02 -8 2 C-5.27366306 0.89786379 -2.95855967 0 0 0 Z " fill="#BDD8DD" transform="translate(124,57)"/>
<path d="M0 0 C1.91717597 2.41968363 1.73741636 4.11664065 1.68359375 7.16796875 C1.67972656 8.11542969 1.67585938 9.06289062 1.671875 10.0390625 C1.37043531 12.73636052 0.74485338 14.41532803 -0.62890625 16.73046875 C-2.72241314 13.32852005 -2.80832788 10.67774463 -2.62890625 6.73046875 C-3.61890625 6.73046875 -4.60890625 6.73046875 -5.62890625 6.73046875 C-5.62890625 5.41046875 -5.62890625 4.09046875 -5.62890625 2.73046875 C-7.60890625 3.39046875 -9.58890625 4.05046875 -11.62890625 4.73046875 C-11.62890625 2.09046875 -11.62890625 -0.54953125 -11.62890625 -3.26953125 C-6.39001126 -4.9160411 -4.12567908 -3.21545732 0 0 Z " fill="#E8F2F3" transform="translate(75.62890625,58.26953125)"/>
<path d="M0 0 C-0.99 2.64 -1.98 5.28 -3 8 C-3.66 8 -4.32 8 -5 8 C-5 8.66 -5 9.32 -5 10 C-6.43655854 10.08131463 -7.8744483 10.13933559 -9.3125 10.1875 C-10.51326172 10.23970703 -10.51326172 10.23970703 -11.73828125 10.29296875 C-14.53873497 9.93021568 -15.18906704 9.09500088 -17 7 C-17.99 6.34 -18.98 5.68 -20 5 C-18.22934889 4.35366725 -16.45847247 3.7079517 -14.6875 3.0625 C-13.70136719 2.70285156 -12.71523437 2.34320312 -11.69921875 1.97265625 C-7.53162153 0.47087375 -4.43639471 -0.09858655 0 0 Z " fill="#DEECEE" transform="translate(87,29)"/>
<path d="M0 0 C4.53214258 1.68336724 8.55341043 3.55341043 12 7 C9 8 9 8 7 8 C6.38125 8.350625 5.7625 8.70125 5.125 9.0625 C2.57938338 10.18556615 1.55699192 9.96989349 -1 9 C-1.33 8.67 -1.66 8.34 -2 8 C-2.99 9.485 -2.99 9.485 -4 11 C-8.375 12.3125 -8.375 12.3125 -11 11 C-10.09970429 9.65555841 -9.17911978 8.32468562 -8.25 7 C-7.73953125 6.2575 -7.2290625 5.515 -6.703125 4.75 C-6.14109375 4.1725 -5.5790625 3.595 -5 3 C-3.68 3 -2.36 3 -1 3 C-0.67 2.01 -0.34 1.02 0 0 Z " fill="#B5D4D9" transform="translate(112,91)"/>
<path d="M0 0 C1.03125 0.309375 2.0625 0.61875 3.125 0.9375 C6.39046352 1.87805947 9.64534137 2.45389278 13 3 C13.66 3.33 14.32 3.66 15 4 C15 4.66 15 5.32 15 6 C10.66666667 6 6.33333333 6 2 6 C1.34 6.165 0.68 6.33 0 6.5 C-2 7 -2 7 -4 7 C-4.66 7.66 -5.32 8.32 -6 9 C-8.2421875 9.37890625 -8.2421875 9.37890625 -10.875 9.5625 C-14.0355005 9.79364108 -16.94588748 10.14058694 -20 11 C-19 9 -19 9 -17 7 C-14.24627091 6.63066355 -11.79634339 6.81663322 -9 7 C-8.814375 6.360625 -8.62875 5.72125 -8.4375 5.0625 C-7 3 -7 3 -3.375 2.25 C-1.704375 2.12625 -1.704375 2.12625 0 2 C0 1.34 0 0.68 0 0 Z " fill="#E2EEF0" transform="translate(148,113)"/>
<path d="M0 0 C3.0625 0.25 3.0625 0.25 6 1 C7.50934217 4.01868434 7.17510672 6.67297229 7 10 C6.01 11.485 6.01 11.485 5 13 C2.5 13.3125 2.5 13.3125 0 13 C-2 11 -2 11 -2.265625 8.90625 C-2.25789062 7.71515625 -2.25789062 7.71515625 -2.25 6.5 C-2.25515625 5.7059375 -2.2603125 4.911875 -2.265625 4.09375 C-2 2 -2 2 0 0 Z " fill="#EEEEEE" transform="translate(250,166)"/>
<path d="M0 0 C0.33 0 0.66 0 1 0 C0.7525 1.010625 0.505 2.02125 0.25 3.0625 C-0.08098586 8.27552735 0.90577122 9.84721926 4 14 C7.35784258 15.93075948 9.04890776 16 13 16 C13.66 14.68 14.32 13.36 15 12 C15.33 15.63 15.66 19.26 16 23 C9.41842459 21.68368492 4.52152664 19.1012722 -0.625 14.8125 C-2.71987966 10.52751889 -1.94832353 6.57951107 -1 2 C-0.67 1.34 -0.34 0.68 0 0 Z " fill="#D5E7EA" transform="translate(162,90)"/>
<path d="M0 0 C2.66232739 1.07526097 4.62242962 2.34603799 7 4 C4.03799949 5.974667 1.90228368 6.71955354 -1.5 7.625 C-2.4590625 7.88539062 -3.418125 8.14578125 -4.40625 8.4140625 C-7 9 -7 9 -10 9 C-10 8.01 -10 7.02 -10 6 C-9.34 5.67 -8.68 5.34 -8 5 C-9.65 4.67 -11.3 4.34 -13 4 C-12.67 3.01 -12.34 2.02 -12 1 C-8.29125192 -0.85437404 -4.04679692 -0.46438653 0 0 Z " fill="#ECF4F5" transform="translate(165,118)"/>
<path d="M0 0 C2.875 -0.125 2.875 -0.125 6 0 C8 2 8 2 8.25 5.4375 C8 9 8 9 6 12 C2.875 12.1875 2.875 12.1875 0 12 C-1.12256131 9.75487738 -1.13413762 8.48543351 -1.125 6 C-1.12886719 4.948125 -1.12886719 4.948125 -1.1328125 3.875 C-1 2 -1 2 0 0 Z " fill="#F2F2F2" transform="translate(258,204)"/>
<path d="M0 0 C1.32 0.66 2.64 1.32 4 2 C2.88625 2.556875 1.7725 3.11375 0.625 3.6875 C-2.49266076 5.37374814 -2.49266076 5.37374814 -3.875 8.625 C-5 11 -5 11 -6.93359375 11.76171875 C-10.95621553 12.69306468 -14.85944778 13.2671324 -19 13 C-17.625 11.5 -17.625 11.5 -16 10 C-15.34 10 -14.68 10 -14 10 C-14 8.68 -14 7.36 -14 6 C-10.25632219 2.93699088 -6.68560958 2.6188541 -2 2 C-1.34 1.34 -0.68 0.68 0 0 Z " fill="#A7CDD4" transform="translate(108,129)"/>
<path d="M0 0 C4.55555556 0.55555556 4.55555556 0.55555556 6 2 C6.09823937 3.66429051 6.12973631 5.33281931 6.125 7 C6.12757813 7.9075 6.13015625 8.815 6.1328125 9.75 C6 12 6 12 5 13 C2.5625 13.1875 2.5625 13.1875 0 13 C-2 11 -2 11 -2.265625 8.90625 C-2.25789063 7.71515625 -2.25789063 7.71515625 -2.25 6.5 C-2.25515625 5.7059375 -2.2603125 4.911875 -2.265625 4.09375 C-2 2 -2 2 0 0 Z " fill="#F4F4F4" transform="translate(301,166)"/>
<path d="M0 0 C-0.51182223 4.17917653 -2.76149845 6.10710028 -5.69140625 8.984375 C-6.15610825 9.44483215 -6.62081024 9.90528931 -7.09959412 10.37969971 C-8.58031819 11.84367811 -10.07114519 13.29686041 -11.5625 14.75 C-12.57034664 15.74279449 -13.57751633 16.7362767 -14.58398438 17.73046875 C-17.04819461 20.16166473 -19.52157329 22.58328868 -22 25 C-22.99 24.34 -23.98 23.68 -25 23 C-21.76743024 19.71809541 -18.52842394 16.44273543 -15.28320312 13.17333984 C-14.17950702 12.05956877 -13.07761027 10.94401168 -11.97753906 9.82666016 C-10.39854926 8.22348763 -8.81325886 6.62679089 -7.2265625 5.03125 C-6.73378815 4.52815308 -6.24101379 4.02505615 -5.73330688 3.50671387 C-2.22774341 0 -2.22774341 0 0 0 Z " fill="#24959B" transform="translate(176,70)"/>
<path d="M0 0 C2.475 0.99 2.475 0.99 5 2 C4.01 2.33 3.02 2.66 2 3 C2 3.66 2 4.32 2 5 C1.34 5.66 0.68 6.32 0 7 C-0.39764263 8.98821313 -0.73775349 10.98944339 -1 13 C-0.34 13 0.32 13 1 13 C1.33 13.33 1.66 13.66 2 14 C2.99 13.67 3.98 13.34 5 13 C3.6581656 17.02550319 1.5772427 17.88285636 -2 20 C-2.66 20 -3.32 20 -4 20 C-7.08108108 15.89189189 -7.08108108 15.89189189 -6.8125 12.9375 C-5.96013121 10.90492826 -5.04085756 8.9429341 -4 7 C-3.34 7 -2.68 7 -2 7 C-1.855625 6.21625 -1.71125 5.4325 -1.5625 4.625 C-1 2 -1 2 0 0 Z " fill="#DBEAED" transform="translate(105,25)"/>
<path d="M0 0 C1.5 1.1875 1.5 1.1875 3 3 C3.1875 5.6875 3.1875 5.6875 3 8 C3.66 8 4.32 8 5 8 C5.28875 8.804375 5.5775 9.60875 5.875 10.4375 C6.73262568 13.1326468 6.73262568 13.1326468 9 14 C9 14.66 9 15.32 9 16 C4.00088076 15.52389341 1.02167317 13.96837781 -3 11 C-2.32829194 7.1936543 -1.27253436 3.64793184 0 0 Z " fill="#ADD0D6" transform="translate(119,72)"/>
<path d="M0 0 C0.99 0.33 1.98 0.66 3 1 C3.73046875 2.84765625 3.73046875 2.84765625 4.1875 5.0625 C4.34605469 5.79597656 4.50460938 6.52945313 4.66796875 7.28515625 C4.83232422 8.13400391 4.83232422 8.13400391 5 9 C5.66 8.67 6.32 8.34 7 8 C7.40729228 5.67843403 7.74438677 3.3431213 8 1 C8.33 1 8.66 1 9 1 C9 5.62 9 10.24 9 15 C4.66376368 15 2.04697844 13.00022174 -1 10 C-2.0625 6.8125 -2.0625 6.8125 -2 4 C-1.34 3.34 -0.68 2.68 0 2 C0 1.34 0 0.68 0 0 Z " fill="#D8E8EB" transform="translate(129,75)"/>
<path d="M0 0 C6.40703902 0.48355011 6.40703902 0.48355011 8.9375 2.6875 C10.27148038 5.59086906 10.21536552 7.84130576 10 11 C8.02 11 6.04 11 4 11 C4 9.02 4 7.04 4 5 C2.02 4.34 0.04 3.68 -2 3 C-1.34 2.01 -0.68 1.02 0 0 Z " fill="#212123" transform="translate(181,199)"/>
<path d="M0 0 C0 0.66 0 1.32 0 2 C-5 3.66666667 -10 5.33333333 -15 7 C-14 4 -14 4 -11.3125 2.375 C-7.53568959 0.80726738 -4.09178557 0 0 0 Z M-15 7 C-15.33 8.32 -15.66 9.64 -16 11 C-16.99 10.67 -17.98 10.34 -19 10 C-19.33 11.65 -19.66 13.3 -20 15 C-21.65 15 -23.3 15 -25 15 C-24.00344362 11.31274141 -23.3417689 10.20648538 -20 8.1875 C-17 7 -17 7 -15 7 Z " fill="#E8F1F3" transform="translate(140,121)"/>
<path d="M0 0 C2.0625 0.4375 2.0625 0.4375 4 1 C3.21875 2.69270833 2.4375 4.38541667 1.65625 6.078125 C0.78457076 8.29242836 0.78457076 8.29242836 1 12 C1.66 12 2.32 12 3 12 C3.33 13.98 3.66 15.96 4 18 C5.32 18.33 6.64 18.66 8 19 C4.23375329 20.25541557 2.62811066 19.37061958 -1 18 C-1.02684312 15.18743719 -1.04676188 12.37512759 -1.0625 9.5625 C-1.07087891 8.76005859 -1.07925781 7.95761719 -1.08789062 7.13085938 C-1.0965143 5.08704779 -1.0522815 3.04316098 -1 1 C-0.67 0.67 -0.34 0.34 0 0 Z " fill="#DDEBEE" transform="translate(149,58)"/>
<path d="M0 0 C0.66 0 1.32 0 2 0 C3.15316726 6.34241995 3.09507063 12.56688704 3 19 C1.68 18.67 0.36 18.34 -1 18 C-2.31818182 10.09090909 -2.31818182 10.09090909 0 6 C0.16724737 2.83304044 0.16724737 2.83304044 0 0 Z " fill="#E9F2F4" transform="translate(134,66)"/>
<path d="M0 0 C0.99 0 1.98 0 3 0 C3 6.27 3 12.54 3 19 C2.01 19 1.02 19 0 19 C0 12.73 0 6.46 0 0 Z " fill="#161618" transform="translate(169,163)"/>
<path d="M0 0 C0.33 0 0.66 0 1 0 C1 4.62 1 9.24 1 14 C-2.74683511 12.50126596 -5.83123556 11.04716434 -9.25 9 C-10.55710938 8.2265625 -10.55710938 8.2265625 -11.890625 7.4375 C-14 6 -14 6 -15 4 C-11.63568573 4.40779567 -9.19312635 5.35702457 -6.3125 7.0625 C-3.35185753 9.16829444 -3.35185753 9.16829444 -1 9 C-0.67 6.03 -0.34 3.06 0 0 Z " fill="#98C6CD" transform="translate(141,84)"/>
<path d="M0 0 C5.60509554 1.78343949 5.60509554 1.78343949 7.9375 3.0625 C10.87274566 4.39670257 13.81744533 4.63278215 17 5 C17.33 4.34 17.66 3.68 18 3 C17.67 4.32 17.34 5.64 17 7 C14.55987895 6.93997242 12.12586474 6.85299796 9.6875 6.75 C8.99720703 6.73582031 8.30691406 6.72164062 7.59570312 6.70703125 C2.44325817 6.45812087 2.44325817 6.45812087 0.01953125 3.953125 C-0.31691406 3.30859375 -0.65335937 2.6640625 -1 2 C-0.67 1.34 -0.34 0.68 0 0 Z " fill="#C1DBE0" transform="translate(65,34)"/>
<path d="M0 0 C1.94526227 2.49149637 1.66065518 4.32049896 1.55078125 7.43359375 C1.52371094 8.42746094 1.49664062 9.42132813 1.46875 10.4453125 C1.43394531 11.20457031 1.39914063 11.96382812 1.36328125 12.74609375 C1.03328125 12.74609375 0.70328125 12.74609375 0.36328125 12.74609375 C0.03328125 9.11609375 -0.29671875 5.48609375 -0.63671875 1.74609375 C-6.12114545 1.00278461 -6.12114545 1.00278461 -11.63671875 0.74609375 C-11.63671875 -0.57390625 -11.63671875 -1.89390625 -11.63671875 -3.25390625 C-6.38798423 -4.90350853 -4.15233447 -3.18114407 0 0 Z " fill="#D3E6E9" transform="translate(75.63671875,58.25390625)"/>
<path d="M0 0 C1.98 0.66 3.96 1.32 6 2 C5.360625 2.12375 4.72125 2.2475 4.0625 2.375 C3.381875 2.58125 2.70125 2.7875 2 3 C1.67 3.66 1.34 4.32 1 5 C-1.31 5 -3.62 5 -6 5 C-6 5.66 -6 6.32 -6 7 C-10.74354436 9.22656164 -14.72250715 10.46148032 -20 11 C-19 9 -19 9 -17 7 C-14.24627091 6.63066355 -11.79634339 6.81663322 -9 7 C-8.814375 6.360625 -8.62875 5.72125 -8.4375 5.0625 C-7 3 -7 3 -3.375 2.25 C-1.704375 2.12625 -1.704375 2.12625 0 2 C0 1.34 0 0.68 0 0 Z " fill="#D1E5E8" transform="translate(148,113)"/>
<path d="M0 0 C0.33 0 0.66 0 1 0 C2.99082569 22.0412844 2.99082569 22.0412844 1 31 C0.67 31 0.34 31 0 31 C-1.10539203 20.43955831 -1.10539203 10.56044169 0 0 Z " fill="#25959C" transform="translate(141,53)"/>
<path d="M0 0 C-3.19958687 1.75288371 -6.34861718 2.76776911 -9.875 3.6875 C-10.88304688 3.95949219 -11.89109375 4.23148438 -12.9296875 4.51171875 C-16.2437963 5.03877168 -18.74224626 4.72448553 -22 4 C-15.06694458 0.281804 -7.7380727 -1.89152888 0 0 Z " fill="#1A9096" transform="translate(109,54)"/>
<path d="M0 0 C-0.99 0.495 -0.99 0.495 -2 1 C-1.67 2.65 -1.34 4.3 -1 6 C-1.721875 5.979375 -2.44375 5.95875 -3.1875 5.9375 C-5.91925138 5.99820559 -8.34256091 6.39258535 -11 7 C-10.67 6.34 -10.34 5.68 -10 5 C-10.66 4.34 -11.32 3.68 -12 3 C-8.48214012 -0.51785988 -4.80656342 -0.10924008 0 0 Z " fill="#EDF4F6" transform="translate(84,30)"/>
<path d="M0 0 C0 3 0 3 -1.8125 5.1875 C-4 7 -4 7 -7 7 C-8.56858296 6.69657808 -10.13113523 6.36089618 -11.6875 6 C-12.49574219 5.814375 -13.30398437 5.62875 -14.13671875 5.4375 C-15.05904297 5.2209375 -15.05904297 5.2209375 -16 5 C-16 4.34 -16 3.68 -16 3 C-16.66 2.67 -17.32 2.34 -18 2 C-16.86820312 2.02320313 -15.73640625 2.04640625 -14.5703125 2.0703125 C-13.08854825 2.08906901 -11.60677688 2.10726934 -10.125 2.125 C-9.00544922 2.15013672 -9.00544922 2.15013672 -7.86328125 2.17578125 C-5.90805539 2.1933959 -3.95257979 2.10320189 -2 2 C-1.34 1.34 -0.68 0.68 0 0 Z " fill="#B3D4D9" transform="translate(86,38)"/>
<path d="M0 0 C0.66 0 1.32 0 2 0 C1.79375 1.11375 1.5875 2.2275 1.375 3.375 C1.25125 4.57125 1.1275 5.7675 1 7 C1.66 7.66 2.32 8.32 3 9 C2.625 12.125 2.625 12.125 2 15 C1.34 15 0.68 15 0 15 C-0.33 15.99 -0.66 16.98 -1 18 C-2.125 14.25 -2.125 14.25 -1 12 C-1.556875 10.63875 -1.556875 10.63875 -2.125 9.25 C-3 6 -3 6 -1.625 2.625 C-1.08875 1.75875 -0.5525 0.8925 0 0 Z " fill="#DAE9EC" transform="translate(131,54)"/>
<path d="M0 0 C0.66 0 1.32 0 2 0 C2.33 1.98 2.66 3.96 3 6 C2.01 5.67 1.02 5.34 0 5 C-0.103125 5.598125 -0.20625 6.19625 -0.3125 6.8125 C-1.10503854 9.33421352 -1.91591409 10.39685699 -4 12 C-4.99 12 -5.98 12 -7 12 C-7 11.34 -7 10.68 -7 10 C-6.34 10 -5.68 10 -5 10 C-4.731875 9.0925 -4.46375 8.185 -4.1875 7.25 C-3.09868368 4.27008166 -2.13608899 2.31409641 0 0 Z " fill="#E3EFF1" transform="translate(171,82)"/>
<path d="M0 0 C0.33 1.32 0.66 2.64 1 4 C1.66 4 2.32 4 3 4 C2.88512252 5.58409994 2.75765492 7.16728963 2.625 8.75 C2.52058594 10.07257813 2.52058594 10.07257813 2.4140625 11.421875 C2.00149945 13.99066382 1.28839043 15.75841015 0 18 C-1.67407948 12.14072182 -1.52003714 5.89014391 0 0 Z " fill="#E0EEF0" transform="translate(66,121)"/>
<path d="M0 0 C0.33 0 0.66 0 1 0 C0.773125 1.0725 0.54625 2.145 0.3125 3.25 C-0.04851341 7.58216098 0.42152887 7.82649707 3 11 C3.6875 14.75 3.6875 14.75 4 18 C2 16 0 14 -2 12 C-1.93600474 10.35066772 -1.79926084 8.70384869 -1.625 7.0625 C-1.53476563 6.16660156 -1.44453125 5.27070312 -1.3515625 4.34765625 C-1 2 -1 2 0 0 Z " fill="#C4DDE2" transform="translate(162,90)"/>
<path d="M0 0 C-0.875 4.875 -0.875 4.875 -2 6 C-3.99958364 6.04080783 -6.00045254 6.04254356 -8 6 C-7.625 3.5625 -7.625 3.5625 -7 1 C-4.53721199 -0.231394 -2.7204945 -0.07159196 0 0 Z " fill="#D9D9DA" transform="translate(192,173)"/>
<path d="M0 0 C1.8871875 0.0309375 1.8871875 0.0309375 3.8125 0.0625 C3.8125 0.7225 3.8125 1.3825 3.8125 2.0625 C1.8325 2.3925 -0.1475 2.7225 -2.1875 3.0625 C-0.8675 3.7225 0.4525 4.3825 1.8125 5.0625 C-0.8275 5.3925 -3.4675 5.7225 -6.1875 6.0625 C-6.5175 4.4125 -6.8475 2.7625 -7.1875 1.0625 C-4.43671116 0.14557039 -2.82801087 -0.04636083 0 0 Z " fill="#363638" transform="translate(188.1875,160.9375)"/>
<path d="M0 0 C2.00720923 0.28674418 4.0085944 0.61866701 6 1 C6.33 2.32 6.66 3.64 7 5 C4.03 5 1.06 5 -2 5 C-1 1 -1 1 0 0 Z " fill="#D0D0D1" transform="translate(179,203)"/>
<path d="M0 0 C0.33 1.32 0.66 2.64 1 4 C-8.41002278 6.29612756 -8.41002278 6.29612756 -13 6 C-10.57804552 3.12744934 -8.40257297 2.29161081 -4.8125 1.3125 C-3.91144531 1.06113281 -3.01039062 0.80976563 -2.08203125 0.55078125 C-1.39496094 0.36902344 -0.70789063 0.18726563 0 0 Z " fill="#BCD9DE" transform="translate(102,136)"/>
<path d="M0 0 C0 2.64 0 5.28 0 8 C-2.5 6.6875 -2.5 6.6875 -5 5 C-5 4.01 -5 3.02 -5 2 C-5.99 2.66 -6.98 3.32 -8 4 C-5.97675095 -0.48005146 -4.79569304 -1.43870791 0 0 Z " fill="#C7DEE2" transform="translate(107,103)"/>
<path d="M0 0 C0.33 0 0.66 0 1 0 C1 4.62 1 9.24 1 14 C0.01 14 -0.98 14 -2 14 C-3.6875 12 -3.6875 12 -5 10 C-3 8 -3 8 -1 7 C-0.59270772 4.67843403 -0.25561323 2.3431213 0 0 Z " fill="#DDEBEE" transform="translate(137,76)"/>
<path d="M0 0 C1.67542976 0.28604898 3.34385343 0.61781233 5 1 C5 2.32 5 3.64 5 5 C3.35 5.33 1.7 5.66 0 6 C-0.38218767 4.34385343 -0.71395102 2.67542976 -1 1 C-0.67 0.67 -0.34 0.34 0 0 Z " fill="#2E2E30" transform="translate(168,153)"/>
<path d="M0 0 C2.31 0.33 4.62 0.66 7 1 C6.01 2.32 5.02 3.64 4 5 C4 4.34 4 3.68 4 3 C3.01 3 2.02 3 1 3 C1 7.29 1 11.58 1 16 C0.67 16 0.34 16 0 16 C0 10.72 0 5.44 0 0 Z " fill="#B6D5DB" transform="translate(63,52)"/>
<path d="M0 0 C0 2 0 2 -1.57421875 3.5859375 C-2.27160156 4.17632812 -2.96898437 4.76671875 -3.6875 5.375 C-4.77611328 6.30119141 -4.77611328 6.30119141 -5.88671875 7.24609375 C-8.23449112 9.19461463 -10.59564775 11.1215998 -13 13 C-13 10 -13 10 -10.6640625 7.51953125 C-9.65873726 6.60862148 -8.64533316 5.70656694 -7.625 4.8125 C-7.11710938 4.34908203 -6.60921875 3.88566406 -6.0859375 3.40820312 C-2.27115933 0 -2.27115933 0 0 0 Z " fill="#9AC7CE" transform="translate(161,89)"/>
<path d="M0 0 C2.52588702 2.36292656 3.88820837 3.66462511 5 7 C4.01 7.33 3.02 7.66 2 8 C1.34 8.66 0.68 9.32 0 10 C-2.21538462 4.58461538 -2.21538462 4.58461538 -1.125 1.625 C-0.75375 1.08875 -0.3825 0.5525 0 0 Z " fill="#BBD8DD" transform="translate(97,39)"/>
<path d="M0 0 C2.99220268 1.36370299 5.29026529 2.94908083 7.75 5.125 C8.67039062 5.93324219 8.67039062 5.93324219 9.609375 6.7578125 C10.06828125 7.16773438 10.5271875 7.57765625 11 8 C9.234375 8.70703125 9.234375 8.70703125 7 9 C5.078125 7.63671875 5.078125 7.63671875 3.25 5.6875 C2.63640625 5.05199219 2.0228125 4.41648437 1.390625 3.76171875 C0 2 0 2 0 0 Z " fill="#1C9197" transform="translate(51,33)"/>
<path d="M0 0 C2.3125 1.5625 2.3125 1.5625 4 3 C0.31434068 4.22855311 -0.52475813 3.39009675 -4 2 C-4.99 2.33 -5.98 2.66 -7 3 C-7.66 2.34 -8.32 1.68 -9 1 C-5.64846558 -1.11022538 -3.75933548 -1.22178403 0 0 Z " fill="#B8D6DC" transform="translate(153,112)"/>
<path d="M0 0 C1.2065625 0.0309375 1.2065625 0.0309375 2.4375 0.0625 C2.4375 1.7125 2.4375 3.3625 2.4375 5.0625 C0.7875 5.0625 -0.8625 5.0625 -2.5625 5.0625 C-3.125 3.125 -3.125 3.125 -3.5625 1.0625 C-2.5625 0.0625 -2.5625 0.0625 0 0 Z " fill="#19191B" transform="translate(306.5625,190.9375)"/>
<path d="M0 0 C1.65 0.99 3.3 1.98 5 3 C4.01 3.66 3.02 4.32 2 5 C1.41407366 8.11610554 1.41407366 8.11610554 1.3125 11.625 C1.24675781 12.81351563 1.18101562 14.00203125 1.11328125 15.2265625 C1.07589844 16.14179687 1.03851563 17.05703125 1 18 C0.67 18 0.34 18 0 18 C0 12.06 0 6.12 0 0 Z " fill="#BCD9DE" transform="translate(147,54)"/>
<path d="M0 0 C-0.33 0.99 -0.66 1.98 -1 3 C-3.06640625 3.73046875 -3.06640625 3.73046875 -5.5625 4.1875 C-6.38878906 4.34605469 -7.21507813 4.50460938 -8.06640625 4.66796875 C-9.02353516 4.83232422 -9.02353516 4.83232422 -10 5 C-10.33 4.01 -10.66 3.02 -11 2 C-7.12315913 0.80712589 -4.08378077 0 0 0 Z " fill="#27969C" transform="translate(135,46)"/>
<path d="M0 0 C0.33 0.66 0.66 1.32 1 2 C1.66 2.33 2.32 2.66 3 3 C-0.83325617 5.70582788 -3.32538149 6.32613618 -8 6 C-8 5.34 -8 4.68 -8 4 C-5.69 4 -3.38 4 -1 4 C-1 3.34 -1 2.68 -1 2 C-2.32 1.67 -3.64 1.34 -5 1 C-3.35 0.67 -1.7 0.34 0 0 Z " fill="#343436" transform="translate(190,178)"/>
<path d="M0 0 C2.26273207 3.55818936 2.07331744 6.12547951 1.625 10.25 C1.51414062 11.32765625 1.40328125 12.4053125 1.2890625 13.515625 C1.19367188 14.33546875 1.09828125 15.1553125 1 16 C0.67 16 0.34 16 0 16 C-0.19389096 13.5211787 -0.38040123 11.04219069 -0.5625 8.5625 C-0.61857422 7.85544922 -0.67464844 7.14839844 -0.73242188 6.41992188 C-0.86190993 4.61572163 -0.93521608 2.80768048 -1 1 C-0.67 0.67 -0.34 0.34 0 0 Z " fill="#C1DEE1" transform="translate(65,135)"/>
<path d="M0 0 C2.97 0.495 2.97 0.495 6 1 C5.04882866 2.1725131 4.08882991 3.33787015 3.125 4.5 C2.59132813 5.1496875 2.05765625 5.799375 1.5078125 6.46875 C1.01023437 6.9740625 0.51265625 7.479375 0 8 C-0.66 8 -1.32 8 -2 8 C-1.125 2.25 -1.125 2.25 0 0 Z " fill="#08898F" transform="translate(83,57)"/>
<path d="M0 0 C0.66 0 1.32 0 2 0 C2 3.3 2 6.6 2 10 C0.66666667 9.33333333 -0.66666667 8.66666667 -2 8 C-1.125 2.25 -1.125 2.25 0 0 Z " fill="#E9F2F4" transform="translate(133,54)"/>
<path d="M0 0 C2.46751239 3.70126859 2.30721156 5.62223532 2 10 C1 12.4375 1 12.4375 0 14 C-0.33 14 -0.66 14 -1 14 C-0.67 9.38 -0.34 4.76 0 0 Z " fill="#ACD0D6" transform="translate(73,87)"/>
<path d="M0 0 C2.97 0.495 2.97 0.495 6 1 C6 2.32 6 3.64 6 5 C3.83125748 4.49396008 2.00032373 4.00016187 0 3 C0 2.01 0 1.02 0 0 Z " fill="#BBD8DD" transform="translate(148,76)"/>
<path d="M0 0 C0.99 0.33 1.98 0.66 3 1 C-1.26311718 5.12989477 -4.28758534 5.61271765 -10 6 C-8.68 5.34 -7.36 4.68 -6 4 C-6 3.34 -6 2.68 -6 2 C-4.7934375 1.7834375 -4.7934375 1.7834375 -3.5625 1.5625 C-1.07896294 1.25864751 -1.07896294 1.25864751 0 0 Z " fill="#D1E4E8" transform="translate(125,124)"/>
<path d="M0 0 C1.5 1.25 1.5 1.25 3 3 C3 4.32 3 5.64 3 7 C3.66 7.33 4.32 7.66 5 8 C4.01 8.33 3.02 8.66 2 9 C-1.07692308 4.56923077 -1.07692308 4.56923077 -0.6875 1.6875 C-0.460625 1.130625 -0.23375 0.57375 0 0 Z " fill="#CBE1E5" transform="translate(99,36)"/>
<path d="M0 0 C1.98 0.495 1.98 0.495 4 1 C4 1.66 4 2.32 4 3 C4.66 3.33 5.32 3.66 6 4 C5.34 4 4.68 4 4 4 C3.67 4.66 3.34 5.32 3 6 C1.68 5.34 0.36 4.68 -1 4 C-0.67 2.68 -0.34 1.36 0 0 Z " fill="#C7DEE2" transform="translate(109,103)"/>
<path d="M0 0 C0.33 0 0.66 0 1 0 C1 1.98 1 3.96 1 6 C-0.6875 6.6875 -0.6875 6.6875 -3 7 C-5.75 5.5625 -5.75 5.5625 -8 4 C-7.67 3.34 -7.34 2.68 -7 2 C-2.25 3.875 -2.25 3.875 0 5 C0 3.35 0 1.7 0 0 Z " fill="#26969C" transform="translate(142,93)"/>
<path d="M0 0 C0.33 0 0.66 0 1 0 C1 2.97 1 5.94 1 9 C-2.465 7.02 -2.465 7.02 -6 5 C-5.67 4.01 -5.34 3.02 -5 2 C-3.68 2.99 -2.36 3.98 -1 5 C-0.67 3.35 -0.34 1.7 0 0 Z " fill="#C9E0E4" transform="translate(138,85)"/>
<path d="M0 0 C0.268125 0.598125 0.53625 1.19625 0.8125 1.8125 C2.83614662 5.54027009 5.15900412 7.27817426 9 9 C5.23375329 10.25541557 3.62811066 9.37061958 0 8 C0 5.36 0 2.72 0 0 Z " fill="#D1E5E8" transform="translate(148,68)"/>
<path d="M0 0 C-1.6875 1.5625 -1.6875 1.5625 -4 3 C-6.75 2.6875 -6.75 2.6875 -9 2 C-9 2.66 -9 3.32 -9 4 C-9.66 4 -10.32 4 -11 4 C-10.67 3.01 -10.34 2.02 -10 1 C-3.84210526 -1.28070175 -3.84210526 -1.28070175 0 0 Z " fill="#D5E7EA" transform="translate(115,133)"/>
<path d="M0 0 C-3.26545761 1.88391785 -6.28111761 2.49287967 -10 3 C-10.33 2.01 -10.66 1.02 -11 0 C-7.18243176 -1.37432457 -3.92744671 -0.67975039 0 0 Z " fill="#339BA2" transform="translate(109,54)"/>
<path d="M0 0 C1.67542976 0.28604898 3.34385343 0.61781233 5 1 C4.67 1.99 4.34 2.98 4 4 C2.35 4 0.7 4 -1 4 C-1 1 -1 1 0 0 Z " fill="#161618" transform="translate(181,199)"/>
<path d="M0 0 C0.33 0.66 0.66 1.32 1 2 C0.0409375 2.1546875 0.0409375 2.1546875 -0.9375 2.3125 C-1.618125 2.539375 -2.29875 2.76625 -3 3 C-3.33 3.99 -3.66 4.98 -4 6 C-5.98 6.33 -7.96 6.66 -10 7 C-6.80331012 4.3513141 -3.60513403 2.06007659 0 0 Z " fill="#C0DBE0" transform="translate(118,126)"/>
<path d="M0 0 C0.33 0.99 0.66 1.98 1 3 C-2.98196457 4.05404945 -5.98195309 3.84098656 -10 3 C-7.24075815 1.19588033 -6.11027897 0.9872755 -2.75 1.375 C-1.38875 1.684375 -1.38875 1.684375 0 2 C0 1.34 0 0.68 0 0 Z " fill="#CEE3E7" transform="translate(82,37)"/>
<path d="M0 0 C1.65 0 3.3 0 5 0 C4.625 1.9375 4.625 1.9375 4 4 C3.01 4.495 3.01 4.495 2 5 C1.67 5.99 1.34 6.98 1 8 C0.34 8 -0.32 8 -1 8 C-0.7525 7.1028125 -0.7525 7.1028125 -0.5 6.1875 C0.1114124 3.88655664 0.1114124 3.88655664 0 1 C0 0.67 0 0.34 0 0 Z " fill="#CBE1E5" transform="translate(85,28)"/>
<path d="M0 0 C0.33 0.99 0.66 1.98 1 3 C0.34 3 -0.32 3 -1 3 C-1.33 3.66 -1.66 4.32 -2 5 C-3.64363134 5.72159424 -5.31050386 6.39351421 -7 7 C-7.33 6.34 -7.66 5.68 -8 5 C-4.04 2.525 -4.04 2.525 0 0 Z " fill="#9AC7CE" transform="translate(93,136)"/>
<path d="M0 0 C0.99 0.33 1.98 0.66 3 1 C2.67 2.65 2.34 4.3 2 6 C-0.31 5.67 -2.62 5.34 -5 5 C-5 4.67 -5 4.34 -5 4 C-3.35 4 -1.7 4 0 4 C0 2.68 0 1.36 0 0 Z " fill="#3F3F41" transform="translate(209,199)"/>
<path d="M0 0 C1.32 0 2.64 0 4 0 C3.67 1.32 3.34 2.64 3 4 C0.69 3.67 -1.62 3.34 -4 3 C-2.68 2.67 -1.36 2.34 0 2 C0 1.34 0 0.68 0 0 Z " fill="#101012" transform="translate(327,200)"/>
<path d="M0 0 C5.75 0.875 5.75 0.875 8 2 C8 2.66 8 3.32 8 4 C6.68 4 5.36 4 4 4 C4 3.34 4 2.68 4 2 C2.35 2 0.7 2 -1 2 C-0.67 1.34 -0.34 0.68 0 0 Z " fill="#D2E5E8" transform="translate(155,115)"/>
<path d="M0 0 C1.32 0.66 2.64 1.32 4 2 C1.6875 3.5625 1.6875 3.5625 -1 5 C-1.99 4.67 -2.98 4.34 -4 4 C-2.68 2.68 -1.36 1.36 0 0 Z " fill="#B0D2D8" transform="translate(108,129)"/>
<path d="M0 0 C0.33 0.99 0.66 1.98 1 3 C1.65129797 4.34090759 2.31513275 5.67592331 3 7 C0 7 0 7 -2 6 C-1.34 4.02 -0.68 2.04 0 0 Z " fill="#CEE2E6" transform="translate(130,79)"/>
<path d="M0 0 C1.32 0 2.64 0 4 0 C3.67 1.65 3.34 3.3 3 5 C2.01 5.33 1.02 5.66 0 6 C0 4.02 0 2.04 0 0 Z " fill="#A5CCD2" transform="translate(77,60)"/>
<path d="M0 0 C3.3 0.33 6.6 0.66 10 1 C9.34 1.66 8.68 2.32 8 3 C5.27130593 2.96712417 2.7033382 2.43602229 0 2 C0 1.34 0 0.68 0 0 Z " fill="#BFDBDF" transform="translate(72,40)"/>
<path d="M0 0 C0.66 0.33 1.32 0.66 2 1 C1.34 2.98 0.68 4.96 0 7 C-0.99 6.67 -1.98 6.34 -3 6 C-2.01 4.02 -1.02 2.04 0 0 Z " fill="#9AC7CE" transform="translate(104,21)"/>
</svg>
